<mxfile host="65bd71144e">
    <diagram id="07WxnESg2kbQ1XBtJ1Xn" name="Page-1">
        <mxGraphModel dx="10475" dy="3599" grid="1" gridSize="10" guides="1" tooltips="1" connect="1" arrows="1" fold="1" page="1" pageScale="1" pageWidth="850" pageHeight="1100" math="0" shadow="0">
            <root>
                <mxCell id="0"/>
                <mxCell id="1" parent="0"/>
                <mxCell id="2" value="" style="shape=cube;whiteSpace=wrap;html=1;boundedLbl=1;backgroundOutline=1;darkOpacity=0.05;darkOpacity2=0.1;sketch=0;fontSize=18;strokeColor=default;fillColor=#CC00CC;size=100;" parent="1" vertex="1">
                    <mxGeometry x="-9846.189999999999" y="-2982.49" width="120" height="120" as="geometry"/>
                </mxCell>
                <mxCell id="3" value="" style="shape=cube;whiteSpace=wrap;html=1;boundedLbl=1;backgroundOutline=1;darkOpacity=0.05;darkOpacity2=0.1;sketch=0;fontSize=18;strokeColor=default;fillColor=#009900;size=100;" parent="1" vertex="1">
                    <mxGeometry x="-9874.3" y="-2982.24" width="120" height="120" as="geometry"/>
                </mxCell>
                <mxCell id="4" value="" style="shape=cube;whiteSpace=wrap;html=1;boundedLbl=1;backgroundOutline=1;darkOpacity=0.05;darkOpacity2=0.1;sketch=0;fontSize=18;strokeColor=default;fillColor=#000066;size=100;" parent="1" vertex="1">
                    <mxGeometry x="-9899.429999999998" y="-2982.24" width="120" height="120" as="geometry"/>
                </mxCell>
                <mxCell id="5" value="" style="shape=cube;whiteSpace=wrap;html=1;boundedLbl=1;backgroundOutline=1;darkOpacity=0.05;darkOpacity2=0.1;sketch=0;fontSize=18;strokeColor=default;fillColor=#FFD966;size=100;" parent="1" vertex="1">
                    <mxGeometry x="-9924.82" y="-2982.24" width="121" height="120" as="geometry"/>
                </mxCell>
                <mxCell id="6" value="" style="shape=table;html=1;whiteSpace=wrap;startSize=0;container=1;collapsible=0;childLayout=tableLayout;strokeWidth=1;fontStyle=1;fillColor=#E6E6E6;" parent="1" vertex="1">
                    <mxGeometry x="-9651.58" y="-3020.47" width="489" height="231" as="geometry"/>
                </mxCell>
                <mxCell id="7" style="shape=partialRectangle;html=1;whiteSpace=wrap;collapsible=0;dropTarget=0;pointerEvents=0;fillColor=#E6E6E6;top=0;left=0;bottom=0;right=0;points=[[0,0.5],[1,0.5]];portConstraint=eastwest;strokeWidth=1;fontStyle=1" parent="6" vertex="1">
                    <mxGeometry width="489" height="29" as="geometry"/>
                </mxCell>
                <mxCell id="8" value="0" style="shape=partialRectangle;html=1;whiteSpace=wrap;connectable=0;fillColor=#990000;top=0;left=0;bottom=0;right=0;overflow=hidden;pointerEvents=1;strokeWidth=1;strokeColor=#CCFF99;fontStyle=1" parent="7" vertex="1">
                    <mxGeometry width="29" height="29" as="geometry">
                        <mxRectangle width="29" height="29" as="alternateBounds"/>
                    </mxGeometry>
                </mxCell>
                <mxCell id="9" value="1" style="shape=partialRectangle;html=1;whiteSpace=wrap;connectable=0;fillColor=#990000;top=0;left=0;bottom=0;right=0;overflow=hidden;pointerEvents=1;strokeWidth=1;fontStyle=1" parent="7" vertex="1">
                    <mxGeometry x="29" width="26" height="29" as="geometry">
                        <mxRectangle width="26" height="29" as="alternateBounds"/>
                    </mxGeometry>
                </mxCell>
                <mxCell id="10" value="2" style="shape=partialRectangle;html=1;whiteSpace=wrap;connectable=0;fillColor=#990000;top=0;left=0;bottom=0;right=0;overflow=hidden;pointerEvents=1;strokeWidth=1;fontStyle=1" parent="7" vertex="1">
                    <mxGeometry x="55" width="20" height="29" as="geometry">
                        <mxRectangle width="20" height="29" as="alternateBounds"/>
                    </mxGeometry>
                </mxCell>
                <mxCell id="11" value="3" style="shape=partialRectangle;html=1;whiteSpace=wrap;connectable=0;fillColor=#990000;top=0;left=0;bottom=0;right=0;overflow=hidden;pointerEvents=1;strokeWidth=1;fontStyle=1" parent="7" vertex="1">
                    <mxGeometry x="75" width="36" height="29" as="geometry">
                        <mxRectangle width="36" height="29" as="alternateBounds"/>
                    </mxGeometry>
                </mxCell>
                <mxCell id="12" value="4" style="shape=partialRectangle;html=1;whiteSpace=wrap;connectable=0;fillColor=#990000;top=0;left=0;bottom=0;right=0;overflow=hidden;pointerEvents=1;strokeWidth=1;fontStyle=1" parent="7" vertex="1">
                    <mxGeometry x="111" width="20" height="29" as="geometry">
                        <mxRectangle width="20" height="29" as="alternateBounds"/>
                    </mxGeometry>
                </mxCell>
                <mxCell id="13" value="5" style="shape=partialRectangle;html=1;whiteSpace=wrap;connectable=0;fillColor=#990000;top=0;left=0;bottom=0;right=0;overflow=hidden;pointerEvents=1;strokeWidth=1;fontStyle=1" parent="7" vertex="1">
                    <mxGeometry x="131" width="34" height="29" as="geometry">
                        <mxRectangle width="34" height="29" as="alternateBounds"/>
                    </mxGeometry>
                </mxCell>
                <mxCell id="14" value="6" style="shape=partialRectangle;html=1;whiteSpace=wrap;connectable=0;fillColor=#990000;top=0;left=0;bottom=0;right=0;overflow=hidden;pointerEvents=1;strokeWidth=1;fontStyle=1" parent="7" vertex="1">
                    <mxGeometry x="165" width="31" height="29" as="geometry">
                        <mxRectangle width="31" height="29" as="alternateBounds"/>
                    </mxGeometry>
                </mxCell>
                <mxCell id="15" value="7" style="shape=partialRectangle;html=1;whiteSpace=wrap;connectable=0;fillColor=#990000;top=0;left=0;bottom=0;right=0;overflow=hidden;pointerEvents=1;strokeWidth=1;fontStyle=1" parent="7" vertex="1">
                    <mxGeometry x="196" width="24" height="29" as="geometry">
                        <mxRectangle width="24" height="29" as="alternateBounds"/>
                    </mxGeometry>
                </mxCell>
                <mxCell id="16" value="8" style="shape=partialRectangle;html=1;whiteSpace=wrap;connectable=0;fillColor=#990000;top=0;left=0;bottom=0;right=0;overflow=hidden;pointerEvents=1;strokeWidth=1;fontStyle=1" parent="7" vertex="1">
                    <mxGeometry x="220" width="32" height="29" as="geometry">
                        <mxRectangle width="32" height="29" as="alternateBounds"/>
                    </mxGeometry>
                </mxCell>
                <mxCell id="17" value="9" style="shape=partialRectangle;html=1;whiteSpace=wrap;connectable=0;fillColor=#006633;top=0;left=0;bottom=0;right=0;overflow=hidden;pointerEvents=1;strokeWidth=1;fontStyle=1" parent="7" vertex="1">
                    <mxGeometry x="252" width="23" height="29" as="geometry">
                        <mxRectangle width="23" height="29" as="alternateBounds"/>
                    </mxGeometry>
                </mxCell>
                <mxCell id="18" value="10" style="shape=partialRectangle;html=1;whiteSpace=wrap;connectable=0;fillColor=#006633;top=0;left=0;bottom=0;right=0;overflow=hidden;pointerEvents=1;strokeWidth=1;fontStyle=1" parent="7" vertex="1">
                    <mxGeometry x="275" width="27" height="29" as="geometry">
                        <mxRectangle width="27" height="29" as="alternateBounds"/>
                    </mxGeometry>
                </mxCell>
                <mxCell id="19" value="11" style="shape=partialRectangle;html=1;whiteSpace=wrap;connectable=0;fillColor=#006633;top=0;left=0;bottom=0;right=0;overflow=hidden;pointerEvents=1;strokeWidth=1;fontStyle=1" parent="7" vertex="1">
                    <mxGeometry x="302" width="29" height="29" as="geometry">
                        <mxRectangle width="29" height="29" as="alternateBounds"/>
                    </mxGeometry>
                </mxCell>
                <mxCell id="20" value="12" style="shape=partialRectangle;html=1;whiteSpace=wrap;connectable=0;fillColor=#006633;top=0;left=0;bottom=0;right=0;overflow=hidden;pointerEvents=1;strokeWidth=1;fontStyle=1" parent="7" vertex="1">
                    <mxGeometry x="331" width="27" height="29" as="geometry">
                        <mxRectangle width="27" height="29" as="alternateBounds"/>
                    </mxGeometry>
                </mxCell>
                <mxCell id="21" value="13" style="shape=partialRectangle;html=1;whiteSpace=wrap;connectable=0;fillColor=#006633;top=0;left=0;bottom=0;right=0;overflow=hidden;pointerEvents=1;strokeWidth=1;fontStyle=1" parent="7" vertex="1">
                    <mxGeometry x="358" width="27" height="29" as="geometry">
                        <mxRectangle width="27" height="29" as="alternateBounds"/>
                    </mxGeometry>
                </mxCell>
                <mxCell id="22" value="14" style="shape=partialRectangle;html=1;whiteSpace=wrap;connectable=0;fillColor=#006633;top=0;left=0;bottom=0;right=0;overflow=hidden;pointerEvents=1;strokeWidth=1;fontStyle=1" parent="7" vertex="1">
                    <mxGeometry x="385" width="26" height="29" as="geometry">
                        <mxRectangle width="26" height="29" as="alternateBounds"/>
                    </mxGeometry>
                </mxCell>
                <mxCell id="23" value="15" style="shape=partialRectangle;html=1;whiteSpace=wrap;connectable=0;fillColor=#006633;top=0;left=0;bottom=0;right=0;overflow=hidden;pointerEvents=1;strokeWidth=1;fontStyle=1" parent="7" vertex="1">
                    <mxGeometry x="411" width="26" height="29" as="geometry">
                        <mxRectangle width="26" height="29" as="alternateBounds"/>
                    </mxGeometry>
                </mxCell>
                <mxCell id="24" value="0" style="shape=partialRectangle;html=1;whiteSpace=wrap;connectable=0;fillColor=#006633;top=0;left=0;bottom=0;right=0;overflow=hidden;pointerEvents=1;strokeWidth=1;fontStyle=1" parent="7" vertex="1">
                    <mxGeometry x="437" width="26" height="29" as="geometry">
                        <mxRectangle width="26" height="29" as="alternateBounds"/>
                    </mxGeometry>
                </mxCell>
                <mxCell id="25" value="0" style="shape=partialRectangle;html=1;whiteSpace=wrap;connectable=0;fillColor=#006633;top=0;left=0;bottom=0;right=0;overflow=hidden;pointerEvents=1;strokeWidth=1;fontStyle=1" parent="7" vertex="1">
                    <mxGeometry x="463" width="26" height="29" as="geometry">
                        <mxRectangle width="26" height="29" as="alternateBounds"/>
                    </mxGeometry>
                </mxCell>
                <mxCell id="26" style="shape=partialRectangle;html=1;whiteSpace=wrap;collapsible=0;dropTarget=0;pointerEvents=0;fillColor=#E6E6E6;top=0;left=0;bottom=0;right=0;points=[[0,0.5],[1,0.5]];portConstraint=eastwest;strokeWidth=1;fontStyle=1" parent="6" vertex="1">
                    <mxGeometry y="29" width="489" height="28" as="geometry"/>
                </mxCell>
                <mxCell id="27" value="" style="shape=partialRectangle;html=1;whiteSpace=wrap;connectable=0;fillColor=#E6E6E6;top=0;left=0;bottom=0;right=0;overflow=hidden;pointerEvents=1;strokeWidth=1;fontStyle=1" parent="26" vertex="1">
                    <mxGeometry width="29" height="28" as="geometry">
                        <mxRectangle width="29" height="28" as="alternateBounds"/>
                    </mxGeometry>
                </mxCell>
                <mxCell id="28" value="" style="shape=partialRectangle;html=1;whiteSpace=wrap;connectable=0;fillColor=#E6E6E6;top=0;left=0;bottom=0;right=0;overflow=hidden;pointerEvents=1;strokeWidth=1;fontStyle=1" parent="26" vertex="1">
                    <mxGeometry x="29" width="26" height="28" as="geometry">
                        <mxRectangle width="26" height="28" as="alternateBounds"/>
                    </mxGeometry>
                </mxCell>
                <mxCell id="29" value="" style="shape=partialRectangle;html=1;whiteSpace=wrap;connectable=0;fillColor=#E6E6E6;top=0;left=0;bottom=0;right=0;overflow=hidden;pointerEvents=1;strokeWidth=1;fontStyle=1" parent="26" vertex="1">
                    <mxGeometry x="55" width="20" height="28" as="geometry">
                        <mxRectangle width="20" height="28" as="alternateBounds"/>
                    </mxGeometry>
                </mxCell>
                <mxCell id="30" value="" style="shape=partialRectangle;html=1;whiteSpace=wrap;connectable=0;fillColor=#E6E6E6;top=0;left=0;bottom=0;right=0;overflow=hidden;pointerEvents=1;strokeWidth=1;fontStyle=1" parent="26" vertex="1">
                    <mxGeometry x="75" width="36" height="28" as="geometry">
                        <mxRectangle width="36" height="28" as="alternateBounds"/>
                    </mxGeometry>
                </mxCell>
                <mxCell id="31" value="" style="shape=partialRectangle;html=1;whiteSpace=wrap;connectable=0;fillColor=#E6E6E6;top=0;left=0;bottom=0;right=0;overflow=hidden;pointerEvents=1;strokeWidth=1;fontStyle=1" parent="26" vertex="1">
                    <mxGeometry x="111" width="20" height="28" as="geometry">
                        <mxRectangle width="20" height="28" as="alternateBounds"/>
                    </mxGeometry>
                </mxCell>
                <mxCell id="32" value="" style="shape=partialRectangle;html=1;whiteSpace=wrap;connectable=0;fillColor=#E6E6E6;top=0;left=0;bottom=0;right=0;overflow=hidden;pointerEvents=1;strokeWidth=1;fontStyle=1" parent="26" vertex="1">
                    <mxGeometry x="131" width="34" height="28" as="geometry">
                        <mxRectangle width="34" height="28" as="alternateBounds"/>
                    </mxGeometry>
                </mxCell>
                <mxCell id="33" value="" style="shape=partialRectangle;html=1;whiteSpace=wrap;connectable=0;fillColor=#E6E6E6;top=0;left=0;bottom=0;right=0;overflow=hidden;pointerEvents=1;strokeWidth=1;fontStyle=1" parent="26" vertex="1">
                    <mxGeometry x="165" width="31" height="28" as="geometry">
                        <mxRectangle width="31" height="28" as="alternateBounds"/>
                    </mxGeometry>
                </mxCell>
                <mxCell id="34" value="" style="shape=partialRectangle;html=1;whiteSpace=wrap;connectable=0;fillColor=#E6E6E6;top=0;left=0;bottom=0;right=0;overflow=hidden;pointerEvents=1;strokeWidth=1;fontStyle=1" parent="26" vertex="1">
                    <mxGeometry x="196" width="24" height="28" as="geometry">
                        <mxRectangle width="24" height="28" as="alternateBounds"/>
                    </mxGeometry>
                </mxCell>
                <mxCell id="35" value="" style="shape=partialRectangle;html=1;whiteSpace=wrap;connectable=0;fillColor=#E6E6E6;top=0;left=0;bottom=0;right=0;overflow=hidden;pointerEvents=1;strokeWidth=1;fontStyle=1" parent="26" vertex="1">
                    <mxGeometry x="220" width="32" height="28" as="geometry">
                        <mxRectangle width="32" height="28" as="alternateBounds"/>
                    </mxGeometry>
                </mxCell>
                <mxCell id="36" value="" style="shape=partialRectangle;html=1;whiteSpace=wrap;connectable=0;fillColor=#E6E6E6;top=0;left=0;bottom=0;right=0;overflow=hidden;pointerEvents=1;strokeWidth=1;fontStyle=1" parent="26" vertex="1">
                    <mxGeometry x="252" width="23" height="28" as="geometry">
                        <mxRectangle width="23" height="28" as="alternateBounds"/>
                    </mxGeometry>
                </mxCell>
                <mxCell id="37" value="" style="shape=partialRectangle;html=1;whiteSpace=wrap;connectable=0;fillColor=#E6E6E6;top=0;left=0;bottom=0;right=0;overflow=hidden;pointerEvents=1;strokeWidth=1;fontStyle=1" parent="26" vertex="1">
                    <mxGeometry x="275" width="27" height="28" as="geometry">
                        <mxRectangle width="27" height="28" as="alternateBounds"/>
                    </mxGeometry>
                </mxCell>
                <mxCell id="38" value="" style="shape=partialRectangle;html=1;whiteSpace=wrap;connectable=0;fillColor=#E6E6E6;top=0;left=0;bottom=0;right=0;overflow=hidden;pointerEvents=1;strokeWidth=1;fontStyle=1" parent="26" vertex="1">
                    <mxGeometry x="302" width="29" height="28" as="geometry">
                        <mxRectangle width="29" height="28" as="alternateBounds"/>
                    </mxGeometry>
                </mxCell>
                <mxCell id="39" value="" style="shape=partialRectangle;html=1;whiteSpace=wrap;connectable=0;fillColor=#E6E6E6;top=0;left=0;bottom=0;right=0;overflow=hidden;pointerEvents=1;strokeWidth=1;fontStyle=1" parent="26" vertex="1">
                    <mxGeometry x="331" width="27" height="28" as="geometry">
                        <mxRectangle width="27" height="28" as="alternateBounds"/>
                    </mxGeometry>
                </mxCell>
                <mxCell id="40" value="" style="shape=partialRectangle;html=1;whiteSpace=wrap;connectable=0;fillColor=#E6E6E6;top=0;left=0;bottom=0;right=0;overflow=hidden;pointerEvents=1;strokeWidth=1;fontStyle=1" parent="26" vertex="1">
                    <mxGeometry x="358" width="27" height="28" as="geometry">
                        <mxRectangle width="27" height="28" as="alternateBounds"/>
                    </mxGeometry>
                </mxCell>
                <mxCell id="41" value="30" style="shape=partialRectangle;html=1;whiteSpace=wrap;connectable=0;fillColor=#E6E6E6;top=0;left=0;bottom=0;right=0;overflow=hidden;pointerEvents=1;strokeWidth=1;fontStyle=1" parent="26" vertex="1">
                    <mxGeometry x="385" width="26" height="28" as="geometry">
                        <mxRectangle width="26" height="28" as="alternateBounds"/>
                    </mxGeometry>
                </mxCell>
                <mxCell id="42" value="31" style="shape=partialRectangle;html=1;whiteSpace=wrap;connectable=0;fillColor=#E6E6E6;top=0;left=0;bottom=0;right=0;overflow=hidden;pointerEvents=1;strokeWidth=1;fontStyle=1" parent="26" vertex="1">
                    <mxGeometry x="411" width="26" height="28" as="geometry">
                        <mxRectangle width="26" height="28" as="alternateBounds"/>
                    </mxGeometry>
                </mxCell>
                <mxCell id="43" value="0" style="shape=partialRectangle;html=1;whiteSpace=wrap;connectable=0;fillColor=#E6E6E6;top=0;left=0;bottom=0;right=0;overflow=hidden;pointerEvents=1;strokeWidth=1;fontStyle=1" parent="26" vertex="1">
                    <mxGeometry x="437" width="26" height="28" as="geometry">
                        <mxRectangle width="26" height="28" as="alternateBounds"/>
                    </mxGeometry>
                </mxCell>
                <mxCell id="44" value="0" style="shape=partialRectangle;html=1;whiteSpace=wrap;connectable=0;fillColor=#E6E6E6;top=0;left=0;bottom=0;right=0;overflow=hidden;pointerEvents=1;strokeWidth=1;fontStyle=1" parent="26" vertex="1">
                    <mxGeometry x="463" width="26" height="28" as="geometry">
                        <mxRectangle width="26" height="28" as="alternateBounds"/>
                    </mxGeometry>
                </mxCell>
                <mxCell id="45" style="shape=partialRectangle;html=1;whiteSpace=wrap;collapsible=0;dropTarget=0;pointerEvents=0;fillColor=#E6E6E6;top=0;left=0;bottom=0;right=0;points=[[0,0.5],[1,0.5]];portConstraint=eastwest;strokeWidth=1;fontStyle=1" parent="6" vertex="1">
                    <mxGeometry y="57" width="489" height="29" as="geometry"/>
                </mxCell>
                <mxCell id="46" value="32" style="shape=partialRectangle;html=1;whiteSpace=wrap;connectable=0;fillColor=#E6E6E6;top=0;left=0;bottom=0;right=0;overflow=hidden;pointerEvents=1;strokeWidth=1;fontStyle=1" parent="45" vertex="1">
                    <mxGeometry width="29" height="29" as="geometry">
                        <mxRectangle width="29" height="29" as="alternateBounds"/>
                    </mxGeometry>
                </mxCell>
                <mxCell id="47" value="" style="shape=partialRectangle;html=1;whiteSpace=wrap;connectable=0;fillColor=#E6E6E6;top=0;left=0;bottom=0;right=0;overflow=hidden;pointerEvents=1;strokeWidth=1;fontStyle=1" parent="45" vertex="1">
                    <mxGeometry x="29" width="26" height="29" as="geometry">
                        <mxRectangle width="26" height="29" as="alternateBounds"/>
                    </mxGeometry>
                </mxCell>
                <mxCell id="48" value="" style="shape=partialRectangle;html=1;whiteSpace=wrap;connectable=0;fillColor=#E6E6E6;top=0;left=0;bottom=0;right=0;overflow=hidden;pointerEvents=1;strokeWidth=1;fontStyle=1" parent="45" vertex="1">
                    <mxGeometry x="55" width="20" height="29" as="geometry">
                        <mxRectangle width="20" height="29" as="alternateBounds"/>
                    </mxGeometry>
                </mxCell>
                <mxCell id="49" value="" style="shape=partialRectangle;html=1;whiteSpace=wrap;connectable=0;fillColor=#E6E6E6;top=0;left=0;bottom=0;right=0;overflow=hidden;pointerEvents=1;strokeWidth=1;fontStyle=1" parent="45" vertex="1">
                    <mxGeometry x="75" width="36" height="29" as="geometry">
                        <mxRectangle width="36" height="29" as="alternateBounds"/>
                    </mxGeometry>
                </mxCell>
                <mxCell id="50" value="" style="shape=partialRectangle;html=1;whiteSpace=wrap;connectable=0;fillColor=#E6E6E6;top=0;left=0;bottom=0;right=0;overflow=hidden;pointerEvents=1;strokeWidth=1;fontStyle=1" parent="45" vertex="1">
                    <mxGeometry x="111" width="20" height="29" as="geometry">
                        <mxRectangle width="20" height="29" as="alternateBounds"/>
                    </mxGeometry>
                </mxCell>
                <mxCell id="51" value="" style="shape=partialRectangle;html=1;whiteSpace=wrap;connectable=0;fillColor=#E6E6E6;top=0;left=0;bottom=0;right=0;overflow=hidden;pointerEvents=1;strokeWidth=1;fontStyle=1" parent="45" vertex="1">
                    <mxGeometry x="131" width="34" height="29" as="geometry">
                        <mxRectangle width="34" height="29" as="alternateBounds"/>
                    </mxGeometry>
                </mxCell>
                <mxCell id="52" value="" style="shape=partialRectangle;html=1;whiteSpace=wrap;connectable=0;fillColor=#E6E6E6;top=0;left=0;bottom=0;right=0;overflow=hidden;pointerEvents=1;strokeWidth=1;fontStyle=1" parent="45" vertex="1">
                    <mxGeometry x="165" width="31" height="29" as="geometry">
                        <mxRectangle width="31" height="29" as="alternateBounds"/>
                    </mxGeometry>
                </mxCell>
                <mxCell id="53" value="" style="shape=partialRectangle;html=1;whiteSpace=wrap;connectable=0;fillColor=#E6E6E6;top=0;left=0;bottom=0;right=0;overflow=hidden;pointerEvents=1;strokeWidth=1;fontStyle=1" parent="45" vertex="1">
                    <mxGeometry x="196" width="24" height="29" as="geometry">
                        <mxRectangle width="24" height="29" as="alternateBounds"/>
                    </mxGeometry>
                </mxCell>
                <mxCell id="54" value="" style="shape=partialRectangle;html=1;whiteSpace=wrap;connectable=0;fillColor=#E6E6E6;top=0;left=0;bottom=0;right=0;overflow=hidden;pointerEvents=1;strokeWidth=1;fontStyle=1" parent="45" vertex="1">
                    <mxGeometry x="220" width="32" height="29" as="geometry">
                        <mxRectangle width="32" height="29" as="alternateBounds"/>
                    </mxGeometry>
                </mxCell>
                <mxCell id="55" value="" style="shape=partialRectangle;html=1;whiteSpace=wrap;connectable=0;fillColor=#E6E6E6;top=0;left=0;bottom=0;right=0;overflow=hidden;pointerEvents=1;strokeWidth=1;fontStyle=1" parent="45" vertex="1">
                    <mxGeometry x="252" width="23" height="29" as="geometry">
                        <mxRectangle width="23" height="29" as="alternateBounds"/>
                    </mxGeometry>
                </mxCell>
                <mxCell id="56" value="" style="shape=partialRectangle;html=1;whiteSpace=wrap;connectable=0;fillColor=#E6E6E6;top=0;left=0;bottom=0;right=0;overflow=hidden;pointerEvents=1;strokeWidth=1;fontStyle=1" parent="45" vertex="1">
                    <mxGeometry x="275" width="27" height="29" as="geometry">
                        <mxRectangle width="27" height="29" as="alternateBounds"/>
                    </mxGeometry>
                </mxCell>
                <mxCell id="57" value="" style="shape=partialRectangle;html=1;whiteSpace=wrap;connectable=0;fillColor=#E6E6E6;top=0;left=0;bottom=0;right=0;overflow=hidden;pointerEvents=1;strokeWidth=1;fontStyle=1" parent="45" vertex="1">
                    <mxGeometry x="302" width="29" height="29" as="geometry">
                        <mxRectangle width="29" height="29" as="alternateBounds"/>
                    </mxGeometry>
                </mxCell>
                <mxCell id="58" value="" style="shape=partialRectangle;html=1;whiteSpace=wrap;connectable=0;fillColor=#E6E6E6;top=0;left=0;bottom=0;right=0;overflow=hidden;pointerEvents=1;strokeWidth=1;fontStyle=1" parent="45" vertex="1">
                    <mxGeometry x="331" width="27" height="29" as="geometry">
                        <mxRectangle width="27" height="29" as="alternateBounds"/>
                    </mxGeometry>
                </mxCell>
                <mxCell id="59" value="" style="shape=partialRectangle;html=1;whiteSpace=wrap;connectable=0;fillColor=#E6E6E6;top=0;left=0;bottom=0;right=0;overflow=hidden;pointerEvents=1;strokeWidth=1;fontStyle=1" parent="45" vertex="1">
                    <mxGeometry x="358" width="27" height="29" as="geometry">
                        <mxRectangle width="27" height="29" as="alternateBounds"/>
                    </mxGeometry>
                </mxCell>
                <mxCell id="60" value="46" style="shape=partialRectangle;html=1;whiteSpace=wrap;connectable=0;fillColor=#E6E6E6;top=0;left=0;bottom=0;right=0;overflow=hidden;pointerEvents=1;strokeWidth=1;fontStyle=1" parent="45" vertex="1">
                    <mxGeometry x="385" width="26" height="29" as="geometry">
                        <mxRectangle width="26" height="29" as="alternateBounds"/>
                    </mxGeometry>
                </mxCell>
                <mxCell id="61" value="46" style="shape=partialRectangle;html=1;whiteSpace=wrap;connectable=0;fillColor=#E6E6E6;top=0;left=0;bottom=0;right=0;overflow=hidden;pointerEvents=1;strokeWidth=1;fontStyle=1" parent="45" vertex="1">
                    <mxGeometry x="411" width="26" height="29" as="geometry">
                        <mxRectangle width="26" height="29" as="alternateBounds"/>
                    </mxGeometry>
                </mxCell>
                <mxCell id="62" value="0" style="shape=partialRectangle;html=1;whiteSpace=wrap;connectable=0;fillColor=#E6E6E6;top=0;left=0;bottom=0;right=0;overflow=hidden;pointerEvents=1;strokeWidth=1;fontStyle=1" parent="45" vertex="1">
                    <mxGeometry x="437" width="26" height="29" as="geometry">
                        <mxRectangle width="26" height="29" as="alternateBounds"/>
                    </mxGeometry>
                </mxCell>
                <mxCell id="63" value="0" style="shape=partialRectangle;html=1;whiteSpace=wrap;connectable=0;fillColor=#E6E6E6;top=0;left=0;bottom=0;right=0;overflow=hidden;pointerEvents=1;strokeWidth=1;fontStyle=1" parent="45" vertex="1">
                    <mxGeometry x="463" width="26" height="29" as="geometry">
                        <mxRectangle width="26" height="29" as="alternateBounds"/>
                    </mxGeometry>
                </mxCell>
                <mxCell id="64" value="" style="shape=partialRectangle;html=1;whiteSpace=wrap;collapsible=0;dropTarget=0;pointerEvents=0;fillColor=#E6E6E6;top=0;left=0;bottom=0;right=0;points=[[0,0.5],[1,0.5]];portConstraint=eastwest;strokeWidth=1;fontStyle=1" parent="6" vertex="1">
                    <mxGeometry y="86" width="489" height="29" as="geometry"/>
                </mxCell>
                <mxCell id="65" value="47" style="shape=partialRectangle;html=1;whiteSpace=wrap;connectable=0;fillColor=#E6E6E6;top=0;left=0;bottom=0;right=0;overflow=hidden;pointerEvents=1;strokeWidth=1;fontStyle=1" parent="64" vertex="1">
                    <mxGeometry width="29" height="29" as="geometry">
                        <mxRectangle width="29" height="29" as="alternateBounds"/>
                    </mxGeometry>
                </mxCell>
                <mxCell id="66" value="48" style="shape=partialRectangle;html=1;whiteSpace=wrap;connectable=0;fillColor=#E6E6E6;top=0;left=0;bottom=0;right=0;overflow=hidden;pointerEvents=1;strokeWidth=1;fontStyle=1" parent="64" vertex="1">
                    <mxGeometry x="29" width="26" height="29" as="geometry">
                        <mxRectangle width="26" height="29" as="alternateBounds"/>
                    </mxGeometry>
                </mxCell>
                <mxCell id="67" value="49" style="shape=partialRectangle;html=1;whiteSpace=wrap;connectable=0;fillColor=#E6E6E6;top=0;left=0;bottom=0;right=0;overflow=hidden;pointerEvents=1;strokeWidth=1;fontStyle=1" parent="64" vertex="1">
                    <mxGeometry x="55" width="20" height="29" as="geometry">
                        <mxRectangle width="20" height="29" as="alternateBounds"/>
                    </mxGeometry>
                </mxCell>
                <mxCell id="68" value="50" style="shape=partialRectangle;html=1;whiteSpace=wrap;connectable=0;fillColor=#E6E6E6;top=0;left=0;bottom=0;right=0;overflow=hidden;pointerEvents=1;strokeWidth=1;fontStyle=1" parent="64" vertex="1">
                    <mxGeometry x="75" width="36" height="29" as="geometry">
                        <mxRectangle width="36" height="29" as="alternateBounds"/>
                    </mxGeometry>
                </mxCell>
                <mxCell id="69" value="51" style="shape=partialRectangle;html=1;whiteSpace=wrap;connectable=0;fillColor=#E6E6E6;top=0;left=0;bottom=0;right=0;overflow=hidden;pointerEvents=1;strokeWidth=1;fontStyle=1" parent="64" vertex="1">
                    <mxGeometry x="111" width="20" height="29" as="geometry">
                        <mxRectangle width="20" height="29" as="alternateBounds"/>
                    </mxGeometry>
                </mxCell>
                <mxCell id="70" value="52" style="shape=partialRectangle;html=1;whiteSpace=wrap;connectable=0;fillColor=#E6E6E6;top=0;left=0;bottom=0;right=0;overflow=hidden;pointerEvents=1;strokeWidth=1;fontStyle=1" parent="64" vertex="1">
                    <mxGeometry x="131" width="34" height="29" as="geometry">
                        <mxRectangle width="34" height="29" as="alternateBounds"/>
                    </mxGeometry>
                </mxCell>
                <mxCell id="71" value="53" style="shape=partialRectangle;html=1;whiteSpace=wrap;connectable=0;fillColor=#E6E6E6;top=0;left=0;bottom=0;right=0;overflow=hidden;pointerEvents=1;strokeWidth=1;fontStyle=1" parent="64" vertex="1">
                    <mxGeometry x="165" width="31" height="29" as="geometry">
                        <mxRectangle width="31" height="29" as="alternateBounds"/>
                    </mxGeometry>
                </mxCell>
                <mxCell id="72" value="54" style="shape=partialRectangle;html=1;whiteSpace=wrap;connectable=0;fillColor=#E6E6E6;top=0;left=0;bottom=0;right=0;overflow=hidden;pointerEvents=1;strokeWidth=1;fontStyle=1" parent="64" vertex="1">
                    <mxGeometry x="196" width="24" height="29" as="geometry">
                        <mxRectangle width="24" height="29" as="alternateBounds"/>
                    </mxGeometry>
                </mxCell>
                <mxCell id="73" value="56" style="shape=partialRectangle;html=1;whiteSpace=wrap;connectable=0;fillColor=#E6E6E6;top=0;left=0;bottom=0;right=0;overflow=hidden;pointerEvents=1;strokeWidth=1;fontStyle=1" parent="64" vertex="1">
                    <mxGeometry x="220" width="32" height="29" as="geometry">
                        <mxRectangle width="32" height="29" as="alternateBounds"/>
                    </mxGeometry>
                </mxCell>
                <mxCell id="74" value="57" style="shape=partialRectangle;html=1;whiteSpace=wrap;connectable=0;fillColor=#E6E6E6;top=0;left=0;bottom=0;right=0;overflow=hidden;pointerEvents=1;strokeWidth=1;fontStyle=1" parent="64" vertex="1">
                    <mxGeometry x="252" width="23" height="29" as="geometry">
                        <mxRectangle width="23" height="29" as="alternateBounds"/>
                    </mxGeometry>
                </mxCell>
                <mxCell id="75" value="58" style="shape=partialRectangle;html=1;whiteSpace=wrap;connectable=0;fillColor=#E6E6E6;top=0;left=0;bottom=0;right=0;overflow=hidden;pointerEvents=1;strokeWidth=1;fontStyle=1" parent="64" vertex="1">
                    <mxGeometry x="275" width="27" height="29" as="geometry">
                        <mxRectangle width="27" height="29" as="alternateBounds"/>
                    </mxGeometry>
                </mxCell>
                <mxCell id="76" value="59" style="shape=partialRectangle;html=1;whiteSpace=wrap;connectable=0;fillColor=#E6E6E6;top=0;left=0;bottom=0;right=0;overflow=hidden;pointerEvents=1;strokeWidth=1;fontStyle=1" parent="64" vertex="1">
                    <mxGeometry x="302" width="29" height="29" as="geometry">
                        <mxRectangle width="29" height="29" as="alternateBounds"/>
                    </mxGeometry>
                </mxCell>
                <mxCell id="77" value="60" style="shape=partialRectangle;html=1;whiteSpace=wrap;connectable=0;fillColor=#E6E6E6;top=0;left=0;bottom=0;right=0;overflow=hidden;pointerEvents=1;strokeWidth=1;fontStyle=1" parent="64" vertex="1">
                    <mxGeometry x="331" width="27" height="29" as="geometry">
                        <mxRectangle width="27" height="29" as="alternateBounds"/>
                    </mxGeometry>
                </mxCell>
                <mxCell id="78" value="61" style="shape=partialRectangle;html=1;whiteSpace=wrap;connectable=0;fillColor=#E6E6E6;top=0;left=0;bottom=0;right=0;overflow=hidden;pointerEvents=1;strokeWidth=1;fontStyle=1" parent="64" vertex="1">
                    <mxGeometry x="358" width="27" height="29" as="geometry">
                        <mxRectangle width="27" height="29" as="alternateBounds"/>
                    </mxGeometry>
                </mxCell>
                <mxCell id="79" value="62" style="shape=partialRectangle;html=1;whiteSpace=wrap;connectable=0;fillColor=#E6E6E6;top=0;left=0;bottom=0;right=0;overflow=hidden;pointerEvents=1;strokeWidth=1;fontStyle=1" parent="64" vertex="1">
                    <mxGeometry x="385" width="26" height="29" as="geometry">
                        <mxRectangle width="26" height="29" as="alternateBounds"/>
                    </mxGeometry>
                </mxCell>
                <mxCell id="80" value="63" style="shape=partialRectangle;html=1;whiteSpace=wrap;connectable=0;fillColor=#E6E6E6;top=0;left=0;bottom=0;right=0;overflow=hidden;pointerEvents=1;strokeWidth=1;fontStyle=1" parent="64" vertex="1">
                    <mxGeometry x="411" width="26" height="29" as="geometry">
                        <mxRectangle width="26" height="29" as="alternateBounds"/>
                    </mxGeometry>
                </mxCell>
                <mxCell id="81" value="0" style="shape=partialRectangle;html=1;whiteSpace=wrap;connectable=0;fillColor=#E6E6E6;top=0;left=0;bottom=0;right=0;overflow=hidden;pointerEvents=1;strokeWidth=1;fontStyle=1" parent="64" vertex="1">
                    <mxGeometry x="437" width="26" height="29" as="geometry">
                        <mxRectangle width="26" height="29" as="alternateBounds"/>
                    </mxGeometry>
                </mxCell>
                <mxCell id="82" value="0" style="shape=partialRectangle;html=1;whiteSpace=wrap;connectable=0;fillColor=#E6E6E6;top=0;left=0;bottom=0;right=0;overflow=hidden;pointerEvents=1;strokeWidth=1;fontStyle=1" parent="64" vertex="1">
                    <mxGeometry x="463" width="26" height="29" as="geometry">
                        <mxRectangle width="26" height="29" as="alternateBounds"/>
                    </mxGeometry>
                </mxCell>
                <mxCell id="83" style="shape=partialRectangle;html=1;whiteSpace=wrap;collapsible=0;dropTarget=0;pointerEvents=0;fillColor=#E6E6E6;top=0;left=0;bottom=0;right=0;points=[[0,0.5],[1,0.5]];portConstraint=eastwest;strokeWidth=1;fontStyle=1" parent="6" vertex="1">
                    <mxGeometry y="115" width="489" height="31" as="geometry"/>
                </mxCell>
                <mxCell id="84" value="64" style="shape=partialRectangle;html=1;whiteSpace=wrap;connectable=0;fillColor=#E6E6E6;top=0;left=0;bottom=0;right=0;overflow=hidden;pointerEvents=1;strokeWidth=1;fontStyle=1" parent="83" vertex="1">
                    <mxGeometry width="29" height="31" as="geometry">
                        <mxRectangle width="29" height="31" as="alternateBounds"/>
                    </mxGeometry>
                </mxCell>
                <mxCell id="85" value="" style="shape=partialRectangle;html=1;whiteSpace=wrap;connectable=0;fillColor=#E6E6E6;top=0;left=0;bottom=0;right=0;overflow=hidden;pointerEvents=1;strokeWidth=1;fontStyle=1" parent="83" vertex="1">
                    <mxGeometry x="29" width="26" height="31" as="geometry">
                        <mxRectangle width="26" height="31" as="alternateBounds"/>
                    </mxGeometry>
                </mxCell>
                <mxCell id="86" value="" style="shape=partialRectangle;html=1;whiteSpace=wrap;connectable=0;fillColor=#E6E6E6;top=0;left=0;bottom=0;right=0;overflow=hidden;pointerEvents=1;strokeWidth=1;fontStyle=1" parent="83" vertex="1">
                    <mxGeometry x="55" width="20" height="31" as="geometry">
                        <mxRectangle width="20" height="31" as="alternateBounds"/>
                    </mxGeometry>
                </mxCell>
                <mxCell id="87" value="67" style="shape=partialRectangle;html=1;whiteSpace=wrap;connectable=0;fillColor=#E6E6E6;top=0;left=0;bottom=0;right=0;overflow=hidden;pointerEvents=1;strokeWidth=1;fontStyle=1" parent="83" vertex="1">
                    <mxGeometry x="75" width="36" height="31" as="geometry">
                        <mxRectangle width="36" height="31" as="alternateBounds"/>
                    </mxGeometry>
                </mxCell>
                <mxCell id="88" value="68" style="shape=partialRectangle;html=1;whiteSpace=wrap;connectable=0;fillColor=#E6E6E6;top=0;left=0;bottom=0;right=0;overflow=hidden;pointerEvents=1;strokeWidth=1;fontStyle=1" parent="83" vertex="1">
                    <mxGeometry x="111" width="20" height="31" as="geometry">
                        <mxRectangle width="20" height="31" as="alternateBounds"/>
                    </mxGeometry>
                </mxCell>
                <mxCell id="89" value="69" style="shape=partialRectangle;html=1;whiteSpace=wrap;connectable=0;fillColor=#E6E6E6;top=0;left=0;bottom=0;right=0;overflow=hidden;pointerEvents=1;strokeWidth=1;fontStyle=1" parent="83" vertex="1">
                    <mxGeometry x="131" width="34" height="31" as="geometry">
                        <mxRectangle width="34" height="31" as="alternateBounds"/>
                    </mxGeometry>
                </mxCell>
                <mxCell id="90" value="70" style="shape=partialRectangle;html=1;whiteSpace=wrap;connectable=0;fillColor=#E6E6E6;top=0;left=0;bottom=0;right=0;overflow=hidden;pointerEvents=1;strokeWidth=1;fontStyle=1" parent="83" vertex="1">
                    <mxGeometry x="165" width="31" height="31" as="geometry">
                        <mxRectangle width="31" height="31" as="alternateBounds"/>
                    </mxGeometry>
                </mxCell>
                <mxCell id="91" value="71" style="shape=partialRectangle;html=1;whiteSpace=wrap;connectable=0;fillColor=#E6E6E6;top=0;left=0;bottom=0;right=0;overflow=hidden;pointerEvents=1;strokeWidth=1;fontStyle=1;comic=1;jiggle=11;" parent="83" vertex="1">
                    <mxGeometry x="196" width="24" height="31" as="geometry">
                        <mxRectangle width="24" height="31" as="alternateBounds"/>
                    </mxGeometry>
                </mxCell>
                <mxCell id="92" value="72" style="shape=partialRectangle;html=1;whiteSpace=wrap;connectable=0;fillColor=#E6E6E6;top=0;left=0;bottom=0;right=0;overflow=hidden;pointerEvents=1;strokeWidth=1;fontStyle=1" parent="83" vertex="1">
                    <mxGeometry x="220" width="32" height="31" as="geometry">
                        <mxRectangle width="32" height="31" as="alternateBounds"/>
                    </mxGeometry>
                </mxCell>
                <mxCell id="93" value="73" style="shape=partialRectangle;html=1;whiteSpace=wrap;connectable=0;fillColor=#E6E6E6;top=0;left=0;bottom=0;right=0;overflow=hidden;pointerEvents=1;strokeWidth=1;fontStyle=1" parent="83" vertex="1">
                    <mxGeometry x="252" width="23" height="31" as="geometry">
                        <mxRectangle width="23" height="31" as="alternateBounds"/>
                    </mxGeometry>
                </mxCell>
                <mxCell id="94" value="74" style="shape=partialRectangle;html=1;whiteSpace=wrap;connectable=0;fillColor=#E6E6E6;top=0;left=0;bottom=0;right=0;overflow=hidden;pointerEvents=1;strokeWidth=1;fontStyle=1" parent="83" vertex="1">
                    <mxGeometry x="275" width="27" height="31" as="geometry">
                        <mxRectangle width="27" height="31" as="alternateBounds"/>
                    </mxGeometry>
                </mxCell>
                <mxCell id="95" value="75" style="shape=partialRectangle;html=1;whiteSpace=wrap;connectable=0;fillColor=#E6E6E6;top=0;left=0;bottom=0;right=0;overflow=hidden;pointerEvents=1;strokeWidth=1;fontStyle=1" parent="83" vertex="1">
                    <mxGeometry x="302" width="29" height="31" as="geometry">
                        <mxRectangle width="29" height="31" as="alternateBounds"/>
                    </mxGeometry>
                </mxCell>
                <mxCell id="96" value="76" style="shape=partialRectangle;html=1;whiteSpace=wrap;connectable=0;fillColor=#E6E6E6;top=0;left=0;bottom=0;right=0;overflow=hidden;pointerEvents=1;strokeWidth=1;fontStyle=1" parent="83" vertex="1">
                    <mxGeometry x="331" width="27" height="31" as="geometry">
                        <mxRectangle width="27" height="31" as="alternateBounds"/>
                    </mxGeometry>
                </mxCell>
                <mxCell id="97" value="77" style="shape=partialRectangle;html=1;whiteSpace=wrap;connectable=0;fillColor=#E6E6E6;top=0;left=0;bottom=0;right=0;overflow=hidden;pointerEvents=1;strokeWidth=1;fontStyle=1" parent="83" vertex="1">
                    <mxGeometry x="358" width="27" height="31" as="geometry">
                        <mxRectangle width="27" height="31" as="alternateBounds"/>
                    </mxGeometry>
                </mxCell>
                <mxCell id="98" value="78" style="shape=partialRectangle;html=1;whiteSpace=wrap;connectable=0;fillColor=#E6E6E6;top=0;left=0;bottom=0;right=0;overflow=hidden;pointerEvents=1;strokeWidth=1;fontStyle=1" parent="83" vertex="1">
                    <mxGeometry x="385" width="26" height="31" as="geometry">
                        <mxRectangle width="26" height="31" as="alternateBounds"/>
                    </mxGeometry>
                </mxCell>
                <mxCell id="99" value="79" style="shape=partialRectangle;html=1;whiteSpace=wrap;connectable=0;fillColor=#E6E6E6;top=0;left=0;bottom=0;right=0;overflow=hidden;pointerEvents=1;strokeWidth=1;fontStyle=1" parent="83" vertex="1">
                    <mxGeometry x="411" width="26" height="31" as="geometry">
                        <mxRectangle width="26" height="31" as="alternateBounds"/>
                    </mxGeometry>
                </mxCell>
                <mxCell id="100" value="0" style="shape=partialRectangle;html=1;whiteSpace=wrap;connectable=0;fillColor=#E6E6E6;top=0;left=0;bottom=0;right=0;overflow=hidden;pointerEvents=1;strokeWidth=1;fontStyle=1" parent="83" vertex="1">
                    <mxGeometry x="437" width="26" height="31" as="geometry">
                        <mxRectangle width="26" height="31" as="alternateBounds"/>
                    </mxGeometry>
                </mxCell>
                <mxCell id="101" value="0" style="shape=partialRectangle;html=1;whiteSpace=wrap;connectable=0;fillColor=#E6E6E6;top=0;left=0;bottom=0;right=0;overflow=hidden;pointerEvents=1;strokeWidth=1;fontStyle=1" parent="83" vertex="1">
                    <mxGeometry x="463" width="26" height="31" as="geometry">
                        <mxRectangle width="26" height="31" as="alternateBounds"/>
                    </mxGeometry>
                </mxCell>
                <mxCell id="102" style="shape=partialRectangle;html=1;whiteSpace=wrap;collapsible=0;dropTarget=0;pointerEvents=0;fillColor=#E6E6E6;top=0;left=0;bottom=0;right=0;points=[[0,0.5],[1,0.5]];portConstraint=eastwest;strokeWidth=1;fontStyle=1" parent="6" vertex="1">
                    <mxGeometry y="146" width="489" height="28" as="geometry"/>
                </mxCell>
                <mxCell id="103" value="80" style="shape=partialRectangle;html=1;whiteSpace=wrap;connectable=0;fillColor=#E6E6E6;top=0;left=0;bottom=0;right=0;overflow=hidden;pointerEvents=1;strokeWidth=1;fontStyle=1" parent="102" vertex="1">
                    <mxGeometry width="29" height="28" as="geometry">
                        <mxRectangle width="29" height="28" as="alternateBounds"/>
                    </mxGeometry>
                </mxCell>
                <mxCell id="104" value="81" style="shape=partialRectangle;html=1;whiteSpace=wrap;connectable=0;fillColor=#E6E6E6;top=0;left=0;bottom=0;right=0;overflow=hidden;pointerEvents=1;strokeWidth=1;fontStyle=1" parent="102" vertex="1">
                    <mxGeometry x="29" width="26" height="28" as="geometry">
                        <mxRectangle width="26" height="28" as="alternateBounds"/>
                    </mxGeometry>
                </mxCell>
                <mxCell id="105" value="82" style="shape=partialRectangle;html=1;whiteSpace=wrap;connectable=0;fillColor=#E6E6E6;top=0;left=0;bottom=0;right=0;overflow=hidden;pointerEvents=1;strokeWidth=1;fontStyle=1" parent="102" vertex="1">
                    <mxGeometry x="55" width="20" height="28" as="geometry">
                        <mxRectangle width="20" height="28" as="alternateBounds"/>
                    </mxGeometry>
                </mxCell>
                <mxCell id="106" value="83" style="shape=partialRectangle;html=1;whiteSpace=wrap;connectable=0;fillColor=#E6E6E6;top=0;left=0;bottom=0;right=0;overflow=hidden;pointerEvents=1;strokeWidth=1;fontStyle=1" parent="102" vertex="1">
                    <mxGeometry x="75" width="36" height="28" as="geometry">
                        <mxRectangle width="36" height="28" as="alternateBounds"/>
                    </mxGeometry>
                </mxCell>
                <mxCell id="107" value="84" style="shape=partialRectangle;html=1;whiteSpace=wrap;connectable=0;fillColor=#E6E6E6;top=0;left=0;bottom=0;right=0;overflow=hidden;pointerEvents=1;strokeWidth=1;fontStyle=1" parent="102" vertex="1">
                    <mxGeometry x="111" width="20" height="28" as="geometry">
                        <mxRectangle width="20" height="28" as="alternateBounds"/>
                    </mxGeometry>
                </mxCell>
                <mxCell id="108" value="85" style="shape=partialRectangle;html=1;whiteSpace=wrap;connectable=0;fillColor=#E6E6E6;top=0;left=0;bottom=0;right=0;overflow=hidden;pointerEvents=1;strokeWidth=1;fontStyle=1" parent="102" vertex="1">
                    <mxGeometry x="131" width="34" height="28" as="geometry">
                        <mxRectangle width="34" height="28" as="alternateBounds"/>
                    </mxGeometry>
                </mxCell>
                <mxCell id="109" value="86" style="shape=partialRectangle;html=1;whiteSpace=wrap;connectable=0;fillColor=#E6E6E6;top=0;left=0;bottom=0;right=0;overflow=hidden;pointerEvents=1;strokeWidth=1;fontStyle=1" parent="102" vertex="1">
                    <mxGeometry x="165" width="31" height="28" as="geometry">
                        <mxRectangle width="31" height="28" as="alternateBounds"/>
                    </mxGeometry>
                </mxCell>
                <mxCell id="110" value="87" style="shape=partialRectangle;html=1;whiteSpace=wrap;connectable=0;fillColor=#E6E6E6;top=0;left=0;bottom=0;right=0;overflow=hidden;pointerEvents=1;strokeWidth=1;fontStyle=1" parent="102" vertex="1">
                    <mxGeometry x="196" width="24" height="28" as="geometry">
                        <mxRectangle width="24" height="28" as="alternateBounds"/>
                    </mxGeometry>
                </mxCell>
                <mxCell id="111" value="88" style="shape=partialRectangle;html=1;whiteSpace=wrap;connectable=0;fillColor=#E6E6E6;top=0;left=0;bottom=0;right=0;overflow=hidden;pointerEvents=1;strokeWidth=1;fontStyle=1" parent="102" vertex="1">
                    <mxGeometry x="220" width="32" height="28" as="geometry">
                        <mxRectangle width="32" height="28" as="alternateBounds"/>
                    </mxGeometry>
                </mxCell>
                <mxCell id="112" value="89" style="shape=partialRectangle;html=1;whiteSpace=wrap;connectable=0;fillColor=#E6E6E6;top=0;left=0;bottom=0;right=0;overflow=hidden;pointerEvents=1;strokeWidth=1;fontStyle=1" parent="102" vertex="1">
                    <mxGeometry x="252" width="23" height="28" as="geometry">
                        <mxRectangle width="23" height="28" as="alternateBounds"/>
                    </mxGeometry>
                </mxCell>
                <mxCell id="113" value="90" style="shape=partialRectangle;html=1;whiteSpace=wrap;connectable=0;fillColor=#E6E6E6;top=0;left=0;bottom=0;right=0;overflow=hidden;pointerEvents=1;strokeWidth=1;fontStyle=1" parent="102" vertex="1">
                    <mxGeometry x="275" width="27" height="28" as="geometry">
                        <mxRectangle width="27" height="28" as="alternateBounds"/>
                    </mxGeometry>
                </mxCell>
                <mxCell id="114" value="91" style="shape=partialRectangle;html=1;whiteSpace=wrap;connectable=0;fillColor=#E6E6E6;top=0;left=0;bottom=0;right=0;overflow=hidden;pointerEvents=1;strokeWidth=1;fontStyle=1" parent="102" vertex="1">
                    <mxGeometry x="302" width="29" height="28" as="geometry">
                        <mxRectangle width="29" height="28" as="alternateBounds"/>
                    </mxGeometry>
                </mxCell>
                <mxCell id="115" value="92" style="shape=partialRectangle;html=1;whiteSpace=wrap;connectable=0;fillColor=#E6E6E6;top=0;left=0;bottom=0;right=0;overflow=hidden;pointerEvents=1;strokeWidth=1;fontStyle=1" parent="102" vertex="1">
                    <mxGeometry x="331" width="27" height="28" as="geometry">
                        <mxRectangle width="27" height="28" as="alternateBounds"/>
                    </mxGeometry>
                </mxCell>
                <mxCell id="116" value="93" style="shape=partialRectangle;html=1;whiteSpace=wrap;connectable=0;fillColor=#E6E6E6;top=0;left=0;bottom=0;right=0;overflow=hidden;pointerEvents=1;strokeWidth=1;fontStyle=1" parent="102" vertex="1">
                    <mxGeometry x="358" width="27" height="28" as="geometry">
                        <mxRectangle width="27" height="28" as="alternateBounds"/>
                    </mxGeometry>
                </mxCell>
                <mxCell id="117" value="94" style="shape=partialRectangle;html=1;whiteSpace=wrap;connectable=0;fillColor=#E6E6E6;top=0;left=0;bottom=0;right=0;overflow=hidden;pointerEvents=1;strokeWidth=1;fontStyle=1" parent="102" vertex="1">
                    <mxGeometry x="385" width="26" height="28" as="geometry">
                        <mxRectangle width="26" height="28" as="alternateBounds"/>
                    </mxGeometry>
                </mxCell>
                <mxCell id="118" value="95" style="shape=partialRectangle;html=1;whiteSpace=wrap;connectable=0;fillColor=#E6E6E6;top=0;left=0;bottom=0;right=0;overflow=hidden;pointerEvents=1;strokeWidth=1;fontStyle=1" parent="102" vertex="1">
                    <mxGeometry x="411" width="26" height="28" as="geometry">
                        <mxRectangle width="26" height="28" as="alternateBounds"/>
                    </mxGeometry>
                </mxCell>
                <mxCell id="119" value="0" style="shape=partialRectangle;html=1;whiteSpace=wrap;connectable=0;fillColor=#E6E6E6;top=0;left=0;bottom=0;right=0;overflow=hidden;pointerEvents=1;strokeWidth=1;fontStyle=1" parent="102" vertex="1">
                    <mxGeometry x="437" width="26" height="28" as="geometry">
                        <mxRectangle width="26" height="28" as="alternateBounds"/>
                    </mxGeometry>
                </mxCell>
                <mxCell id="120" value="0" style="shape=partialRectangle;html=1;whiteSpace=wrap;connectable=0;fillColor=#E6E6E6;top=0;left=0;bottom=0;right=0;overflow=hidden;pointerEvents=1;strokeWidth=1;fontStyle=1" parent="102" vertex="1">
                    <mxGeometry x="463" width="26" height="28" as="geometry">
                        <mxRectangle width="26" height="28" as="alternateBounds"/>
                    </mxGeometry>
                </mxCell>
                <mxCell id="121" value="" style="shape=partialRectangle;html=1;whiteSpace=wrap;collapsible=0;dropTarget=0;pointerEvents=0;fillColor=#E6E6E6;top=0;left=0;bottom=0;right=0;points=[[0,0.5],[1,0.5]];portConstraint=eastwest;strokeWidth=1;fontStyle=1" parent="6" vertex="1">
                    <mxGeometry y="174" width="489" height="28" as="geometry"/>
                </mxCell>
                <mxCell id="122" value="96" style="shape=partialRectangle;html=1;whiteSpace=wrap;connectable=0;fillColor=#E6E6E6;top=0;left=0;bottom=0;right=0;overflow=hidden;pointerEvents=1;strokeWidth=1;fontStyle=1" parent="121" vertex="1">
                    <mxGeometry width="29" height="28" as="geometry">
                        <mxRectangle width="29" height="28" as="alternateBounds"/>
                    </mxGeometry>
                </mxCell>
                <mxCell id="123" value="97" style="shape=partialRectangle;html=1;whiteSpace=wrap;connectable=0;fillColor=#E6E6E6;top=0;left=0;bottom=0;right=0;overflow=hidden;pointerEvents=1;strokeWidth=1;fontStyle=1" parent="121" vertex="1">
                    <mxGeometry x="29" width="26" height="28" as="geometry">
                        <mxRectangle width="26" height="28" as="alternateBounds"/>
                    </mxGeometry>
                </mxCell>
                <mxCell id="124" value="98" style="shape=partialRectangle;html=1;whiteSpace=wrap;connectable=0;fillColor=#E6E6E6;top=0;left=0;bottom=0;right=0;overflow=hidden;pointerEvents=1;strokeWidth=1;fontStyle=1" parent="121" vertex="1">
                    <mxGeometry x="55" width="20" height="28" as="geometry">
                        <mxRectangle width="20" height="28" as="alternateBounds"/>
                    </mxGeometry>
                </mxCell>
                <mxCell id="125" value="99" style="shape=partialRectangle;html=1;whiteSpace=wrap;connectable=0;fillColor=#E6E6E6;top=0;left=0;bottom=0;right=0;overflow=hidden;pointerEvents=1;strokeWidth=1;fontStyle=1" parent="121" vertex="1">
                    <mxGeometry x="75" width="36" height="28" as="geometry">
                        <mxRectangle width="36" height="28" as="alternateBounds"/>
                    </mxGeometry>
                </mxCell>
                <mxCell id="126" value="100" style="shape=partialRectangle;html=1;whiteSpace=wrap;connectable=0;fillColor=#E6E6E6;top=0;left=0;bottom=0;right=0;overflow=hidden;pointerEvents=1;strokeWidth=1;fontStyle=1" parent="121" vertex="1">
                    <mxGeometry x="111" width="20" height="28" as="geometry">
                        <mxRectangle width="20" height="28" as="alternateBounds"/>
                    </mxGeometry>
                </mxCell>
                <mxCell id="127" value="101" style="shape=partialRectangle;html=1;whiteSpace=wrap;connectable=0;fillColor=#E6E6E6;top=0;left=0;bottom=0;right=0;overflow=hidden;pointerEvents=1;strokeWidth=1;fontStyle=1" parent="121" vertex="1">
                    <mxGeometry x="131" width="34" height="28" as="geometry">
                        <mxRectangle width="34" height="28" as="alternateBounds"/>
                    </mxGeometry>
                </mxCell>
                <mxCell id="128" value="102" style="shape=partialRectangle;html=1;whiteSpace=wrap;connectable=0;fillColor=#E6E6E6;top=0;left=0;bottom=0;right=0;overflow=hidden;pointerEvents=1;strokeWidth=1;fontStyle=1" parent="121" vertex="1">
                    <mxGeometry x="165" width="31" height="28" as="geometry">
                        <mxRectangle width="31" height="28" as="alternateBounds"/>
                    </mxGeometry>
                </mxCell>
                <mxCell id="129" value="103" style="shape=partialRectangle;html=1;whiteSpace=wrap;connectable=0;fillColor=#E6E6E6;top=0;left=0;bottom=0;right=0;overflow=hidden;pointerEvents=1;strokeWidth=1;fontStyle=1" parent="121" vertex="1">
                    <mxGeometry x="196" width="24" height="28" as="geometry">
                        <mxRectangle width="24" height="28" as="alternateBounds"/>
                    </mxGeometry>
                </mxCell>
                <mxCell id="130" value="104" style="shape=partialRectangle;html=1;whiteSpace=wrap;connectable=0;fillColor=#E6E6E6;top=0;left=0;bottom=0;right=0;overflow=hidden;pointerEvents=1;strokeWidth=1;fontStyle=1" parent="121" vertex="1">
                    <mxGeometry x="220" width="32" height="28" as="geometry">
                        <mxRectangle width="32" height="28" as="alternateBounds"/>
                    </mxGeometry>
                </mxCell>
                <mxCell id="131" value="105" style="shape=partialRectangle;html=1;whiteSpace=wrap;connectable=0;fillColor=#E6E6E6;top=0;left=0;bottom=0;right=0;overflow=hidden;pointerEvents=1;strokeWidth=1;fontStyle=1" parent="121" vertex="1">
                    <mxGeometry x="252" width="23" height="28" as="geometry">
                        <mxRectangle width="23" height="28" as="alternateBounds"/>
                    </mxGeometry>
                </mxCell>
                <mxCell id="132" value="106" style="shape=partialRectangle;html=1;whiteSpace=wrap;connectable=0;fillColor=#E6E6E6;top=0;left=0;bottom=0;right=0;overflow=hidden;pointerEvents=1;strokeWidth=1;fontStyle=1" parent="121" vertex="1">
                    <mxGeometry x="275" width="27" height="28" as="geometry">
                        <mxRectangle width="27" height="28" as="alternateBounds"/>
                    </mxGeometry>
                </mxCell>
                <mxCell id="133" value="107" style="shape=partialRectangle;html=1;whiteSpace=wrap;connectable=0;fillColor=#E6E6E6;top=0;left=0;bottom=0;right=0;overflow=hidden;pointerEvents=1;strokeWidth=1;fontStyle=1" parent="121" vertex="1">
                    <mxGeometry x="302" width="29" height="28" as="geometry">
                        <mxRectangle width="29" height="28" as="alternateBounds"/>
                    </mxGeometry>
                </mxCell>
                <mxCell id="134" value="108" style="shape=partialRectangle;html=1;whiteSpace=wrap;connectable=0;fillColor=#E6E6E6;top=0;left=0;bottom=0;right=0;overflow=hidden;pointerEvents=1;strokeWidth=1;fontStyle=1" parent="121" vertex="1">
                    <mxGeometry x="331" width="27" height="28" as="geometry">
                        <mxRectangle width="27" height="28" as="alternateBounds"/>
                    </mxGeometry>
                </mxCell>
                <mxCell id="135" value="109" style="shape=partialRectangle;html=1;whiteSpace=wrap;connectable=0;fillColor=#E6E6E6;top=0;left=0;bottom=0;right=0;overflow=hidden;pointerEvents=1;strokeWidth=1;fontStyle=1" parent="121" vertex="1">
                    <mxGeometry x="358" width="27" height="28" as="geometry">
                        <mxRectangle width="27" height="28" as="alternateBounds"/>
                    </mxGeometry>
                </mxCell>
                <mxCell id="136" value="110" style="shape=partialRectangle;html=1;whiteSpace=wrap;connectable=0;fillColor=#E6E6E6;top=0;left=0;bottom=0;right=0;overflow=hidden;pointerEvents=1;strokeWidth=1;fontStyle=1" parent="121" vertex="1">
                    <mxGeometry x="385" width="26" height="28" as="geometry">
                        <mxRectangle width="26" height="28" as="alternateBounds"/>
                    </mxGeometry>
                </mxCell>
                <mxCell id="137" value="111" style="shape=partialRectangle;html=1;whiteSpace=wrap;connectable=0;fillColor=#E6E6E6;top=0;left=0;bottom=0;right=0;overflow=hidden;pointerEvents=1;strokeWidth=1;fontStyle=1" parent="121" vertex="1">
                    <mxGeometry x="411" width="26" height="28" as="geometry">
                        <mxRectangle width="26" height="28" as="alternateBounds"/>
                    </mxGeometry>
                </mxCell>
                <mxCell id="138" value="0" style="shape=partialRectangle;html=1;whiteSpace=wrap;connectable=0;fillColor=#E6E6E6;top=0;left=0;bottom=0;right=0;overflow=hidden;pointerEvents=1;strokeWidth=1;fontStyle=1" parent="121" vertex="1">
                    <mxGeometry x="437" width="26" height="28" as="geometry">
                        <mxRectangle width="26" height="28" as="alternateBounds"/>
                    </mxGeometry>
                </mxCell>
                <mxCell id="139" value="0" style="shape=partialRectangle;html=1;whiteSpace=wrap;connectable=0;fillColor=#E6E6E6;top=0;left=0;bottom=0;right=0;overflow=hidden;pointerEvents=1;strokeWidth=1;fontStyle=1" parent="121" vertex="1">
                    <mxGeometry x="463" width="26" height="28" as="geometry">
                        <mxRectangle width="26" height="28" as="alternateBounds"/>
                    </mxGeometry>
                </mxCell>
                <mxCell id="140" value="" style="shape=partialRectangle;html=1;whiteSpace=wrap;collapsible=0;dropTarget=0;pointerEvents=0;fillColor=#E6E6E6;top=0;left=0;bottom=0;right=0;points=[[0,0.5],[1,0.5]];portConstraint=eastwest;strokeWidth=1;fontStyle=1" parent="6" vertex="1">
                    <mxGeometry y="202" width="489" height="29" as="geometry"/>
                </mxCell>
                <mxCell id="141" value="112" style="shape=partialRectangle;html=1;whiteSpace=wrap;connectable=0;fillColor=#E6E6E6;top=0;left=0;bottom=0;right=0;overflow=hidden;pointerEvents=1;strokeWidth=1;fontStyle=1" parent="140" vertex="1">
                    <mxGeometry width="29" height="29" as="geometry">
                        <mxRectangle width="29" height="29" as="alternateBounds"/>
                    </mxGeometry>
                </mxCell>
                <mxCell id="142" value="113" style="shape=partialRectangle;html=1;whiteSpace=wrap;connectable=0;fillColor=#E6E6E6;top=0;left=0;bottom=0;right=0;overflow=hidden;pointerEvents=1;strokeWidth=1;fontStyle=1" parent="140" vertex="1">
                    <mxGeometry x="29" width="26" height="29" as="geometry">
                        <mxRectangle width="26" height="29" as="alternateBounds"/>
                    </mxGeometry>
                </mxCell>
                <mxCell id="143" value="114" style="shape=partialRectangle;html=1;whiteSpace=wrap;connectable=0;fillColor=#E6E6E6;top=0;left=0;bottom=0;right=0;overflow=hidden;pointerEvents=1;strokeWidth=1;fontStyle=1" parent="140" vertex="1">
                    <mxGeometry x="55" width="20" height="29" as="geometry">
                        <mxRectangle width="20" height="29" as="alternateBounds"/>
                    </mxGeometry>
                </mxCell>
                <mxCell id="144" value="115" style="shape=partialRectangle;html=1;whiteSpace=wrap;connectable=0;fillColor=#E6E6E6;top=0;left=0;bottom=0;right=0;overflow=hidden;pointerEvents=1;strokeWidth=1;fontStyle=1" parent="140" vertex="1">
                    <mxGeometry x="75" width="36" height="29" as="geometry">
                        <mxRectangle width="36" height="29" as="alternateBounds"/>
                    </mxGeometry>
                </mxCell>
                <mxCell id="145" value="116" style="shape=partialRectangle;html=1;whiteSpace=wrap;connectable=0;fillColor=#E6E6E6;top=0;left=0;bottom=0;right=0;overflow=hidden;pointerEvents=1;strokeWidth=1;fontStyle=1" parent="140" vertex="1">
                    <mxGeometry x="111" width="20" height="29" as="geometry">
                        <mxRectangle width="20" height="29" as="alternateBounds"/>
                    </mxGeometry>
                </mxCell>
                <mxCell id="146" value="117" style="shape=partialRectangle;html=1;whiteSpace=wrap;connectable=0;fillColor=#E6E6E6;top=0;left=0;bottom=0;right=0;overflow=hidden;pointerEvents=1;strokeWidth=1;fontStyle=1" parent="140" vertex="1">
                    <mxGeometry x="131" width="34" height="29" as="geometry">
                        <mxRectangle width="34" height="29" as="alternateBounds"/>
                    </mxGeometry>
                </mxCell>
                <mxCell id="147" value="118" style="shape=partialRectangle;html=1;whiteSpace=wrap;connectable=0;fillColor=#E6E6E6;top=0;left=0;bottom=0;right=0;overflow=hidden;pointerEvents=1;strokeWidth=1;fontStyle=1" parent="140" vertex="1">
                    <mxGeometry x="165" width="31" height="29" as="geometry">
                        <mxRectangle width="31" height="29" as="alternateBounds"/>
                    </mxGeometry>
                </mxCell>
                <mxCell id="148" value="119" style="shape=partialRectangle;html=1;whiteSpace=wrap;connectable=0;fillColor=#E6E6E6;top=0;left=0;bottom=0;right=0;overflow=hidden;pointerEvents=1;strokeWidth=1;fontStyle=1" parent="140" vertex="1">
                    <mxGeometry x="196" width="24" height="29" as="geometry">
                        <mxRectangle width="24" height="29" as="alternateBounds"/>
                    </mxGeometry>
                </mxCell>
                <mxCell id="149" value="120" style="shape=partialRectangle;html=1;whiteSpace=wrap;connectable=0;fillColor=#E6E6E6;top=0;left=0;bottom=0;right=0;overflow=hidden;pointerEvents=1;strokeWidth=1;fontStyle=1" parent="140" vertex="1">
                    <mxGeometry x="220" width="32" height="29" as="geometry">
                        <mxRectangle width="32" height="29" as="alternateBounds"/>
                    </mxGeometry>
                </mxCell>
                <mxCell id="150" value="121" style="shape=partialRectangle;html=1;whiteSpace=wrap;connectable=0;fillColor=#E6E6E6;top=0;left=0;bottom=0;right=0;overflow=hidden;pointerEvents=1;strokeWidth=1;fontStyle=1" parent="140" vertex="1">
                    <mxGeometry x="252" width="23" height="29" as="geometry">
                        <mxRectangle width="23" height="29" as="alternateBounds"/>
                    </mxGeometry>
                </mxCell>
                <mxCell id="151" value="122" style="shape=partialRectangle;html=1;whiteSpace=wrap;connectable=0;fillColor=#E6E6E6;top=0;left=0;bottom=0;right=0;overflow=hidden;pointerEvents=1;strokeWidth=1;fontStyle=1" parent="140" vertex="1">
                    <mxGeometry x="275" width="27" height="29" as="geometry">
                        <mxRectangle width="27" height="29" as="alternateBounds"/>
                    </mxGeometry>
                </mxCell>
                <mxCell id="152" value="123" style="shape=partialRectangle;html=1;whiteSpace=wrap;connectable=0;fillColor=#E6E6E6;top=0;left=0;bottom=0;right=0;overflow=hidden;pointerEvents=1;strokeWidth=1;fontStyle=1" parent="140" vertex="1">
                    <mxGeometry x="302" width="29" height="29" as="geometry">
                        <mxRectangle width="29" height="29" as="alternateBounds"/>
                    </mxGeometry>
                </mxCell>
                <mxCell id="153" value="124" style="shape=partialRectangle;html=1;whiteSpace=wrap;connectable=0;fillColor=#E6E6E6;top=0;left=0;bottom=0;right=0;overflow=hidden;pointerEvents=1;strokeWidth=1;fontStyle=1" parent="140" vertex="1">
                    <mxGeometry x="331" width="27" height="29" as="geometry">
                        <mxRectangle width="27" height="29" as="alternateBounds"/>
                    </mxGeometry>
                </mxCell>
                <mxCell id="154" value="125" style="shape=partialRectangle;html=1;whiteSpace=wrap;connectable=0;fillColor=#E6E6E6;top=0;left=0;bottom=0;right=0;overflow=hidden;pointerEvents=1;strokeWidth=1;fontStyle=1" parent="140" vertex="1">
                    <mxGeometry x="358" width="27" height="29" as="geometry">
                        <mxRectangle width="27" height="29" as="alternateBounds"/>
                    </mxGeometry>
                </mxCell>
                <mxCell id="155" value="126" style="shape=partialRectangle;html=1;whiteSpace=wrap;connectable=0;fillColor=#E6E6E6;top=0;left=0;bottom=0;right=0;overflow=hidden;pointerEvents=1;strokeWidth=1;fontStyle=1" parent="140" vertex="1">
                    <mxGeometry x="385" width="26" height="29" as="geometry">
                        <mxRectangle width="26" height="29" as="alternateBounds"/>
                    </mxGeometry>
                </mxCell>
                <mxCell id="156" value="127" style="shape=partialRectangle;html=1;whiteSpace=wrap;connectable=0;fillColor=#E6E6E6;top=0;left=0;bottom=0;right=0;overflow=hidden;pointerEvents=1;strokeWidth=1;fontStyle=1" parent="140" vertex="1">
                    <mxGeometry x="411" width="26" height="29" as="geometry">
                        <mxRectangle width="26" height="29" as="alternateBounds"/>
                    </mxGeometry>
                </mxCell>
                <mxCell id="157" value="0" style="shape=partialRectangle;html=1;whiteSpace=wrap;connectable=0;fillColor=#E6E6E6;top=0;left=0;bottom=0;right=0;overflow=hidden;pointerEvents=1;strokeWidth=1;fontStyle=1" parent="140" vertex="1">
                    <mxGeometry x="437" width="26" height="29" as="geometry">
                        <mxRectangle width="26" height="29" as="alternateBounds"/>
                    </mxGeometry>
                </mxCell>
                <mxCell id="158" value="0" style="shape=partialRectangle;html=1;whiteSpace=wrap;connectable=0;fillColor=#E6E6E6;top=0;left=0;bottom=0;right=0;overflow=hidden;pointerEvents=1;strokeWidth=1;fontStyle=1" parent="140" vertex="1">
                    <mxGeometry x="463" width="26" height="29" as="geometry">
                        <mxRectangle width="26" height="29" as="alternateBounds"/>
                    </mxGeometry>
                </mxCell>
                <mxCell id="159" value="" style="shape=curlyBracket;whiteSpace=wrap;html=1;rounded=1;strokeColor=#000000;strokeWidth=3;fillColor=none;rotation=90;fontStyle=1" parent="1" vertex="1">
                    <mxGeometry x="-9196.83" y="-3057.47" width="20" height="51" as="geometry"/>
                </mxCell>
                <mxCell id="160" value="" style="shape=curlyBracket;whiteSpace=wrap;html=1;rounded=1;strokeColor=#000000;strokeWidth=3;fillColor=none;rotation=90;fontStyle=1" parent="1" vertex="1">
                    <mxGeometry x="-9444.050000000001" y="-3293.4700000000003" width="20" height="431.01" as="geometry"/>
                </mxCell>
                <mxCell id="161" value="" style="shape=curlyBracket;whiteSpace=wrap;html=1;rounded=1;strokeColor=#000000;strokeWidth=3;fillColor=none;rotation=0;fontStyle=1" parent="1" vertex="1">
                    <mxGeometry x="-9678.58" y="-3019.47" width="20" height="26" as="geometry"/>
                </mxCell>
                <mxCell id="162" value="C = 16" style="text;html=1;strokeColor=none;fillColor=none;align=center;verticalAlign=middle;whiteSpace=wrap;rounded=0;fontStyle=1" parent="1" vertex="1">
                    <mxGeometry x="-9464.94" y="-3116.9700000000003" width="60" height="30" as="geometry"/>
                </mxCell>
                <mxCell id="163" value="F_unroll = 1" style="text;html=1;strokeColor=none;fillColor=none;align=center;verticalAlign=middle;whiteSpace=wrap;rounded=0;horizontal=0;fontStyle=1" parent="1" vertex="1">
                    <mxGeometry x="-9709" y="-3054.47" width="31" height="96" as="geometry"/>
                </mxCell>
                <mxCell id="164" value="C_PADDING = 2" style="text;html=1;strokeColor=none;fillColor=none;align=center;verticalAlign=middle;whiteSpace=wrap;rounded=0;fontStyle=1" parent="1" vertex="1">
                    <mxGeometry x="-9240.329999999998" y="-3063.47" width="107" height="20" as="geometry"/>
                </mxCell>
                <mxCell id="165" value="" style="endArrow=classic;html=1;strokeColor=#990000;strokeWidth=6;fontStyle=1" parent="1" edge="1">
                    <mxGeometry width="50" height="50" relative="1" as="geometry">
                        <mxPoint x="-9719" y="-2896" as="sourcePoint"/>
                        <mxPoint x="-9659" y="-2896" as="targetPoint"/>
                    </mxGeometry>
                </mxCell>
                <mxCell id="166" value="Reshape" style="text;html=1;strokeColor=none;fillColor=none;align=center;verticalAlign=middle;whiteSpace=wrap;rounded=0;fontStyle=1" parent="1" vertex="1">
                    <mxGeometry x="-9719" y="-2878.99" width="52.95" height="30" as="geometry"/>
                </mxCell>
                <mxCell id="167" value="" style="shape=curlyBracket;whiteSpace=wrap;html=1;rounded=1;strokeColor=#000000;strokeWidth=3;fillColor=none;rotation=90;fontStyle=1" parent="1" vertex="1">
                    <mxGeometry x="-9935.300000000001" y="-3113.99" width="20" height="193.02" as="geometry"/>
                </mxCell>
                <mxCell id="168" value="" style="shape=cube;whiteSpace=wrap;html=1;boundedLbl=1;backgroundOutline=1;darkOpacity=0.05;darkOpacity2=0.1;sketch=0;fontSize=18;strokeColor=default;fillColor=#990000;size=100;" parent="1" vertex="1">
                    <mxGeometry x="-9957.189999999999" y="-2982.24" width="120" height="120" as="geometry"/>
                </mxCell>
                <mxCell id="169" value="" style="shape=curlyBracket;whiteSpace=wrap;html=1;rounded=1;flipH=1;sketch=0;strokeColor=default;fillColor=#FFD966;rotation=135;" parent="1" vertex="1">
                    <mxGeometry x="-10015.3" y="-2970" width="30" height="149" as="geometry"/>
                </mxCell>
                <mxCell id="170" value="" style="shape=cube;whiteSpace=wrap;html=1;boundedLbl=1;backgroundOutline=1;darkOpacity=0.05;darkOpacity2=0.1;sketch=0;fontSize=18;strokeColor=default;fillColor=#FF8000;size=100;" parent="1" vertex="1">
                    <mxGeometry x="-9985.3" y="-2981.99" width="120" height="120" as="geometry"/>
                </mxCell>
                <mxCell id="171" value="" style="shape=cube;whiteSpace=wrap;html=1;boundedLbl=1;backgroundOutline=1;darkOpacity=0.05;darkOpacity2=0.1;sketch=0;fontSize=18;strokeColor=default;fillColor=#CC0066;size=100;" parent="1" vertex="1">
                    <mxGeometry x="-10010.429999999998" y="-2981.99" width="120" height="120" as="geometry"/>
                </mxCell>
                <mxCell id="172" value="" style="shape=cube;whiteSpace=wrap;html=1;boundedLbl=1;backgroundOutline=1;darkOpacity=0.05;darkOpacity2=0.1;sketch=0;fontSize=18;strokeColor=default;fillColor=#67AB9F;size=100;" parent="1" vertex="1">
                    <mxGeometry x="-10035.82" y="-2981.99" width="121" height="120" as="geometry"/>
                </mxCell>
                <mxCell id="173" value="" style="shape=curlyBracket;whiteSpace=wrap;html=1;rounded=1;flipH=1;sketch=0;strokeColor=default;fillColor=#FFD966;rotation=90;" parent="1" vertex="1">
                    <mxGeometry x="-9846.19" y="-2930" width="30" height="200" as="geometry"/>
                </mxCell>
                <mxCell id="174" value="8 Filters" style="text;html=1;strokeColor=none;fillColor=none;align=center;verticalAlign=middle;whiteSpace=wrap;rounded=0;sketch=0;fontSize=22;fontStyle=1" parent="1" vertex="1">
                    <mxGeometry x="-9882.429999999998" y="-2810" width="103" height="20" as="geometry"/>
                </mxCell>
                <mxCell id="175" value="16 Channels" style="text;html=1;strokeColor=none;fillColor=none;align=center;verticalAlign=middle;whiteSpace=wrap;rounded=0;sketch=0;fontSize=20;fontStyle=1" parent="1" vertex="1">
                    <mxGeometry x="-10107.3" y="-2881.99" width="122" height="20" as="geometry"/>
                </mxCell>
                <mxCell id="176" value="&amp;nbsp;1x1 Weight tensor" style="text;html=1;strokeColor=none;fillColor=none;align=center;verticalAlign=middle;whiteSpace=wrap;rounded=0;sketch=0;fontStyle=1;fontSize=18;rotation=0;" parent="1" vertex="1">
                    <mxGeometry x="-10050.549999999997" y="-3057.4700000000003" width="246.73" height="20" as="geometry"/>
                </mxCell>
                <mxCell id="177" value="16" style="shape=partialRectangle;html=1;whiteSpace=wrap;connectable=0;fillColor=#E6E6E6;top=0;left=0;bottom=0;right=0;overflow=hidden;pointerEvents=1;strokeWidth=1;fontStyle=1" parent="1" vertex="1">
                    <mxGeometry x="-9651.58" y="-2991.47" width="26" height="28" as="geometry">
                        <mxRectangle width="26" height="28" as="alternateBounds"/>
                    </mxGeometry>
                </mxCell>
                <mxCell id="178" value="17" style="shape=partialRectangle;html=1;whiteSpace=wrap;connectable=0;fillColor=#E6E6E6;top=0;left=0;bottom=0;right=0;overflow=hidden;pointerEvents=1;strokeWidth=1;fontStyle=1" parent="1" vertex="1">
                    <mxGeometry x="-9625.58" y="-2991.47" width="20" height="28" as="geometry">
                        <mxRectangle width="20" height="28" as="alternateBounds"/>
                    </mxGeometry>
                </mxCell>
                <mxCell id="179" value="18" style="shape=partialRectangle;html=1;whiteSpace=wrap;connectable=0;fillColor=#E6E6E6;top=0;left=0;bottom=0;right=0;overflow=hidden;pointerEvents=1;strokeWidth=1;fontStyle=1" parent="1" vertex="1">
                    <mxGeometry x="-9605.58" y="-2991.47" width="36" height="28" as="geometry">
                        <mxRectangle width="36" height="28" as="alternateBounds"/>
                    </mxGeometry>
                </mxCell>
                <mxCell id="180" value="19" style="shape=partialRectangle;html=1;whiteSpace=wrap;connectable=0;fillColor=#E6E6E6;top=0;left=0;bottom=0;right=0;overflow=hidden;pointerEvents=1;strokeWidth=1;fontStyle=1" parent="1" vertex="1">
                    <mxGeometry x="-9569.58" y="-2991.47" width="20" height="28" as="geometry">
                        <mxRectangle width="20" height="28" as="alternateBounds"/>
                    </mxGeometry>
                </mxCell>
                <mxCell id="181" value="20" style="shape=partialRectangle;html=1;whiteSpace=wrap;connectable=0;fillColor=#E6E6E6;top=0;left=0;bottom=0;right=0;overflow=hidden;pointerEvents=1;strokeWidth=1;fontStyle=1" parent="1" vertex="1">
                    <mxGeometry x="-9549.58" y="-2991.47" width="34" height="28" as="geometry">
                        <mxRectangle width="34" height="28" as="alternateBounds"/>
                    </mxGeometry>
                </mxCell>
                <mxCell id="182" value="21" style="shape=partialRectangle;html=1;whiteSpace=wrap;connectable=0;fillColor=#E6E6E6;top=0;left=0;bottom=0;right=0;overflow=hidden;pointerEvents=1;strokeWidth=1;fontStyle=1" parent="1" vertex="1">
                    <mxGeometry x="-9515.58" y="-2991.47" width="31" height="28" as="geometry">
                        <mxRectangle width="31" height="28" as="alternateBounds"/>
                    </mxGeometry>
                </mxCell>
                <mxCell id="183" value="22" style="shape=partialRectangle;html=1;whiteSpace=wrap;connectable=0;fillColor=#E6E6E6;top=0;left=0;bottom=0;right=0;overflow=hidden;pointerEvents=1;strokeWidth=1;fontStyle=1" parent="1" vertex="1">
                    <mxGeometry x="-9484.58" y="-2991.47" width="24" height="28" as="geometry">
                        <mxRectangle width="24" height="28" as="alternateBounds"/>
                    </mxGeometry>
                </mxCell>
                <mxCell id="184" value="23" style="shape=partialRectangle;html=1;whiteSpace=wrap;connectable=0;fillColor=#E6E6E6;top=0;left=0;bottom=0;right=0;overflow=hidden;pointerEvents=1;strokeWidth=1;fontStyle=1" parent="1" vertex="1">
                    <mxGeometry x="-9460.58" y="-2991.47" width="29" height="28" as="geometry">
                        <mxRectangle width="29" height="28" as="alternateBounds"/>
                    </mxGeometry>
                </mxCell>
                <mxCell id="185" value="24" style="shape=partialRectangle;html=1;whiteSpace=wrap;connectable=0;fillColor=#E6E6E6;top=0;left=0;bottom=0;right=0;overflow=hidden;pointerEvents=1;strokeWidth=1;fontStyle=1" parent="1" vertex="1">
                    <mxGeometry x="-9431.58" y="-2991.47" width="26" height="28" as="geometry">
                        <mxRectangle width="26" height="28" as="alternateBounds"/>
                    </mxGeometry>
                </mxCell>
                <mxCell id="186" value="25" style="shape=partialRectangle;html=1;whiteSpace=wrap;connectable=0;fillColor=#E6E6E6;top=0;left=0;bottom=0;right=0;overflow=hidden;pointerEvents=1;strokeWidth=1;fontStyle=1" parent="1" vertex="1">
                    <mxGeometry x="-9405.58" y="-2991.47" width="27" height="28" as="geometry">
                        <mxRectangle width="27" height="28" as="alternateBounds"/>
                    </mxGeometry>
                </mxCell>
                <mxCell id="187" value="26" style="shape=partialRectangle;html=1;whiteSpace=wrap;connectable=0;fillColor=#E6E6E6;top=0;left=0;bottom=0;right=0;overflow=hidden;pointerEvents=1;strokeWidth=1;fontStyle=1" parent="1" vertex="1">
                    <mxGeometry x="-9378.58" y="-2991.47" width="29" height="28" as="geometry">
                        <mxRectangle width="29" height="28" as="alternateBounds"/>
                    </mxGeometry>
                </mxCell>
                <mxCell id="188" value="27" style="shape=partialRectangle;html=1;whiteSpace=wrap;connectable=0;fillColor=#E6E6E6;top=0;left=0;bottom=0;right=0;overflow=hidden;pointerEvents=1;strokeWidth=1;fontStyle=1" parent="1" vertex="1">
                    <mxGeometry x="-9349.58" y="-2991.47" width="27" height="28" as="geometry">
                        <mxRectangle width="27" height="28" as="alternateBounds"/>
                    </mxGeometry>
                </mxCell>
                <mxCell id="189" value="28" style="shape=partialRectangle;html=1;whiteSpace=wrap;connectable=0;fillColor=#E6E6E6;top=0;left=0;bottom=0;right=0;overflow=hidden;pointerEvents=1;strokeWidth=1;fontStyle=1" parent="1" vertex="1">
                    <mxGeometry x="-9322.58" y="-2991.47" width="27" height="28" as="geometry">
                        <mxRectangle width="27" height="28" as="alternateBounds"/>
                    </mxGeometry>
                </mxCell>
                <mxCell id="190" value="29" style="shape=partialRectangle;html=1;whiteSpace=wrap;connectable=0;fillColor=#E6E6E6;top=0;left=0;bottom=0;right=0;overflow=hidden;pointerEvents=1;strokeWidth=1;fontStyle=1" parent="1" vertex="1">
                    <mxGeometry x="-9295.58" y="-2991.47" width="26" height="28" as="geometry">
                        <mxRectangle width="26" height="28" as="alternateBounds"/>
                    </mxGeometry>
                </mxCell>
                <mxCell id="191" value="33" style="shape=partialRectangle;html=1;whiteSpace=wrap;connectable=0;fillColor=#E6E6E6;top=0;left=0;bottom=0;right=0;overflow=hidden;pointerEvents=1;strokeWidth=1;fontStyle=1" parent="1" vertex="1">
                    <mxGeometry x="-9620.76" y="-2963.47" width="20" height="29" as="geometry">
                        <mxRectangle width="20" height="29" as="alternateBounds"/>
                    </mxGeometry>
                </mxCell>
                <mxCell id="192" value="34" style="shape=partialRectangle;html=1;whiteSpace=wrap;connectable=0;fillColor=#E6E6E6;top=0;left=0;bottom=0;right=0;overflow=hidden;pointerEvents=1;strokeWidth=1;fontStyle=1" parent="1" vertex="1">
                    <mxGeometry x="-9605.58" y="-2963.47" width="36" height="29" as="geometry">
                        <mxRectangle width="36" height="29" as="alternateBounds"/>
                    </mxGeometry>
                </mxCell>
                <mxCell id="193" value="35" style="shape=partialRectangle;html=1;whiteSpace=wrap;connectable=0;fillColor=#E6E6E6;top=0;left=0;bottom=0;right=0;overflow=hidden;pointerEvents=1;strokeWidth=1;fontStyle=1" parent="1" vertex="1">
                    <mxGeometry x="-9569.58" y="-2963.47" width="20" height="29" as="geometry">
                        <mxRectangle width="20" height="29" as="alternateBounds"/>
                    </mxGeometry>
                </mxCell>
                <mxCell id="194" value="36" style="shape=partialRectangle;html=1;whiteSpace=wrap;connectable=0;fillColor=#E6E6E6;top=0;left=0;bottom=0;right=0;overflow=hidden;pointerEvents=1;strokeWidth=1;fontStyle=1" parent="1" vertex="1">
                    <mxGeometry x="-9549.58" y="-2963.47" width="34" height="29" as="geometry">
                        <mxRectangle width="34" height="29" as="alternateBounds"/>
                    </mxGeometry>
                </mxCell>
                <mxCell id="195" value="37" style="shape=partialRectangle;html=1;whiteSpace=wrap;connectable=0;fillColor=#E6E6E6;top=0;left=0;bottom=0;right=0;overflow=hidden;pointerEvents=1;strokeWidth=1;fontStyle=1" parent="1" vertex="1">
                    <mxGeometry x="-9515.58" y="-2963.47" width="31" height="29" as="geometry">
                        <mxRectangle width="31" height="29" as="alternateBounds"/>
                    </mxGeometry>
                </mxCell>
                <mxCell id="196" value="38" style="shape=partialRectangle;html=1;whiteSpace=wrap;connectable=0;fillColor=#E6E6E6;top=0;left=0;bottom=0;right=0;overflow=hidden;pointerEvents=1;strokeWidth=1;fontStyle=1" parent="1" vertex="1">
                    <mxGeometry x="-9484.58" y="-2963.47" width="24" height="29" as="geometry">
                        <mxRectangle width="24" height="29" as="alternateBounds"/>
                    </mxGeometry>
                </mxCell>
                <mxCell id="197" value="39" style="shape=partialRectangle;html=1;whiteSpace=wrap;connectable=0;fillColor=#E6E6E6;top=0;left=0;bottom=0;right=0;overflow=hidden;pointerEvents=1;strokeWidth=1;fontStyle=1" parent="1" vertex="1">
                    <mxGeometry x="-9460.58" y="-2963.47" width="29" height="29" as="geometry">
                        <mxRectangle width="29" height="29" as="alternateBounds"/>
                    </mxGeometry>
                </mxCell>
                <mxCell id="198" value="40" style="shape=partialRectangle;html=1;whiteSpace=wrap;connectable=0;fillColor=#E6E6E6;top=0;left=0;bottom=0;right=0;overflow=hidden;pointerEvents=1;strokeWidth=1;fontStyle=1" parent="1" vertex="1">
                    <mxGeometry x="-9431.58" y="-2963.47" width="26" height="29" as="geometry">
                        <mxRectangle width="26" height="29" as="alternateBounds"/>
                    </mxGeometry>
                </mxCell>
                <mxCell id="199" value="41" style="shape=partialRectangle;html=1;whiteSpace=wrap;connectable=0;fillColor=#E6E6E6;top=0;left=0;bottom=0;right=0;overflow=hidden;pointerEvents=1;strokeWidth=1;fontStyle=1" parent="1" vertex="1">
                    <mxGeometry x="-9405.58" y="-2963.47" width="27" height="29" as="geometry">
                        <mxRectangle width="27" height="29" as="alternateBounds"/>
                    </mxGeometry>
                </mxCell>
                <mxCell id="200" value="42" style="shape=partialRectangle;html=1;whiteSpace=wrap;connectable=0;fillColor=#E6E6E6;top=0;left=0;bottom=0;right=0;overflow=hidden;pointerEvents=1;strokeWidth=1;fontStyle=1" parent="1" vertex="1">
                    <mxGeometry x="-9378.58" y="-2963.47" width="29" height="29" as="geometry">
                        <mxRectangle width="29" height="29" as="alternateBounds"/>
                    </mxGeometry>
                </mxCell>
                <mxCell id="201" value="43" style="shape=partialRectangle;html=1;whiteSpace=wrap;connectable=0;fillColor=#E6E6E6;top=0;left=0;bottom=0;right=0;overflow=hidden;pointerEvents=1;strokeWidth=1;fontStyle=1" parent="1" vertex="1">
                    <mxGeometry x="-9349.58" y="-2963.47" width="27" height="29" as="geometry">
                        <mxRectangle width="27" height="29" as="alternateBounds"/>
                    </mxGeometry>
                </mxCell>
                <mxCell id="202" value="44" style="shape=partialRectangle;html=1;whiteSpace=wrap;connectable=0;fillColor=#E6E6E6;top=0;left=0;bottom=0;right=0;overflow=hidden;pointerEvents=1;strokeWidth=1;fontStyle=1" parent="1" vertex="1">
                    <mxGeometry x="-9322.58" y="-2963.47" width="27" height="29" as="geometry">
                        <mxRectangle width="27" height="29" as="alternateBounds"/>
                    </mxGeometry>
                </mxCell>
                <mxCell id="203" value="45" style="shape=partialRectangle;html=1;whiteSpace=wrap;connectable=0;fillColor=#E6E6E6;top=0;left=0;bottom=0;right=0;overflow=hidden;pointerEvents=1;strokeWidth=1;fontStyle=1" parent="1" vertex="1">
                    <mxGeometry x="-9295.58" y="-2963.47" width="26" height="29" as="geometry">
                        <mxRectangle width="26" height="29" as="alternateBounds"/>
                    </mxGeometry>
                </mxCell>
                <mxCell id="204" value="65" style="shape=partialRectangle;html=1;whiteSpace=wrap;connectable=0;fillColor=#E6E6E6;top=0;left=0;bottom=0;right=0;overflow=hidden;pointerEvents=1;strokeWidth=1;fontStyle=1" parent="1" vertex="1">
                    <mxGeometry x="-9622.58" y="-2905.47" width="26" height="31" as="geometry">
                        <mxRectangle width="26" height="31" as="alternateBounds"/>
                    </mxGeometry>
                </mxCell>
                <mxCell id="205" value="66" style="shape=partialRectangle;html=1;whiteSpace=wrap;connectable=0;fillColor=#E6E6E6;top=0;left=0;bottom=0;right=0;overflow=hidden;pointerEvents=1;strokeWidth=1;fontStyle=1" parent="1" vertex="1">
                    <mxGeometry x="-9596.58" y="-2905.47" width="20" height="31" as="geometry">
                        <mxRectangle width="20" height="31" as="alternateBounds"/>
                    </mxGeometry>
                </mxCell>
                <mxCell id="206" value="" style="shape=curlyBracket;whiteSpace=wrap;html=1;rounded=1;strokeColor=#000000;strokeWidth=3;fillColor=none;rotation=90;fontStyle=1" parent="1" vertex="1">
                    <mxGeometry x="-9539.58" y="-3159.97" width="20" height="239" as="geometry"/>
                </mxCell>
                <mxCell id="207" value="Ceff = 9" style="text;html=1;strokeColor=none;fillColor=none;align=center;verticalAlign=middle;whiteSpace=wrap;rounded=0;fontStyle=1" parent="1" vertex="1">
                    <mxGeometry x="-9645.63" y="-3073.47" width="192.93" height="30" as="geometry"/>
                </mxCell>
                <mxCell id="208" value="" style="endArrow=none;html=1;rounded=1;fontSize=31;fontColor=#990000;strokeColor=#000000;strokeWidth=2;" parent="1" edge="1">
                    <mxGeometry width="50" height="50" relative="1" as="geometry">
                        <mxPoint x="-9652.15" y="-2991.47" as="sourcePoint"/>
                        <mxPoint x="-9162.15" y="-2991.47" as="targetPoint"/>
                    </mxGeometry>
                </mxCell>
                <mxCell id="209" value="" style="endArrow=none;html=1;rounded=1;fontSize=31;fontColor=#990000;strokeColor=#000000;strokeWidth=2;exitX=0;exitY=0.011;exitDx=0;exitDy=0;exitPerimeter=0;" parent="1" source="45" edge="1">
                    <mxGeometry width="50" height="50" relative="1" as="geometry">
                        <mxPoint x="-9648.58" y="-2963.6099999999997" as="sourcePoint"/>
                        <mxPoint x="-9162.15" y="-2963.47" as="targetPoint"/>
                    </mxGeometry>
                </mxCell>
                <mxCell id="210" value="" style="endArrow=none;html=1;rounded=1;fontSize=31;fontColor=#990000;strokeColor=#000000;strokeWidth=2;exitX=0;exitY=0.037;exitDx=0;exitDy=0;exitPerimeter=0;" parent="1" source="64" edge="1">
                    <mxGeometry width="50" height="50" relative="1" as="geometry">
                        <mxPoint x="-9648.58" y="-2933.47" as="sourcePoint"/>
                        <mxPoint x="-9162.15" y="-2933.47" as="targetPoint"/>
                    </mxGeometry>
                </mxCell>
                <mxCell id="211" value="" style="endArrow=none;html=1;rounded=1;fontSize=31;fontColor=#990000;strokeColor=#000000;strokeWidth=2;exitX=0;exitY=1.004;exitDx=0;exitDy=0;exitPerimeter=0;" parent="1" source="64" edge="1">
                    <mxGeometry width="50" height="50" relative="1" as="geometry">
                        <mxPoint x="-9645.15" y="-2905.47" as="sourcePoint"/>
                        <mxPoint x="-9162.15" y="-2905.47" as="targetPoint"/>
                    </mxGeometry>
                </mxCell>
                <mxCell id="212" value="" style="endArrow=none;html=1;rounded=1;fontSize=31;fontColor=#990000;strokeColor=#000000;strokeWidth=2;exitX=0;exitY=0;exitDx=0;exitDy=0;exitPerimeter=0;" parent="1" source="102" edge="1">
                    <mxGeometry width="50" height="50" relative="1" as="geometry">
                        <mxPoint x="-9645.15" y="-2874.47" as="sourcePoint"/>
                        <mxPoint x="-9161.869999999999" y="-2874.47" as="targetPoint"/>
                    </mxGeometry>
                </mxCell>
                <mxCell id="213" value="" style="endArrow=none;html=1;rounded=1;fontSize=31;fontColor=#990000;strokeColor=#000000;strokeWidth=2;exitX=0;exitY=0.002;exitDx=0;exitDy=0;exitPerimeter=0;" parent="1" source="121" edge="1">
                    <mxGeometry width="50" height="50" relative="1" as="geometry">
                        <mxPoint x="-9645.15" y="-2846.47" as="sourcePoint"/>
                        <mxPoint x="-9162.3" y="-2846.6099999999997" as="targetPoint"/>
                    </mxGeometry>
                </mxCell>
                <mxCell id="214" value="" style="endArrow=none;html=1;rounded=1;fontSize=31;fontColor=#990000;strokeColor=#000000;strokeWidth=2;exitX=0;exitY=0.071;exitDx=0;exitDy=0;exitPerimeter=0;" parent="1" source="140" edge="1">
                    <mxGeometry width="50" height="50" relative="1" as="geometry">
                        <mxPoint x="-9645.15" y="-2816.47" as="sourcePoint"/>
                        <mxPoint x="-9162.3" y="-2816.47" as="targetPoint"/>
                    </mxGeometry>
                </mxCell>
                <mxCell id="215" value="" style="endArrow=none;html=1;rounded=1;fontSize=31;fontColor=#990000;strokeColor=#000000;strokeWidth=2;exitX=0.06;exitY=1.006;exitDx=0;exitDy=0;exitPerimeter=0;" parent="1" edge="1">
                    <mxGeometry width="50" height="50" relative="1" as="geometry">
                        <mxPoint x="-9405.24" y="-2789.466" as="sourcePoint"/>
                        <mxPoint x="-9405.58" y="-3020.64" as="targetPoint"/>
                    </mxGeometry>
                </mxCell>
                <mxCell id="216" value="" style="endArrow=none;html=1;rounded=1;fontSize=31;fontColor=#990000;strokeColor=#000000;strokeWidth=2;exitX=0.06;exitY=1.006;exitDx=0;exitDy=0;exitPerimeter=0;" parent="1" edge="1">
                    <mxGeometry width="50" height="50" relative="1" as="geometry">
                        <mxPoint x="-9162.24" y="-2789.466" as="sourcePoint"/>
                        <mxPoint x="-9162.58" y="-3020.64" as="targetPoint"/>
                    </mxGeometry>
                </mxCell>
            </root>
        </mxGraphModel>
    </diagram>
</mxfile>